<svg id="Layer_1" data-name="Layer 1" xmlns="http://www.w3.org/2000/svg" width="512" height="512" viewBox="0 0 512 512"><defs><style>.cls-1{fill:#017632;}.cls-2{fill:#fff;}</style></defs><title>nu</title><ellipse class="cls-1" cx="256.7584" cy="254.9199" rx="203.5401" ry="204.8272"/><path class="cls-2" d="M256.7358,458.069c-113.2465,0-205.3792-92.1322-205.3792-205.3786S143.4894,47.3118,256.7358,47.3118,462.1139,139.4445,462.1139,252.69,369.9817,458.069,256.7358,458.069Zm0-406.3444c-110.8133,0-200.9664,90.1531-200.9664,200.9658s90.1531,200.9658,200.9664,200.9658S457.7011,363.5031,457.7011,252.69,367.548,51.7246,256.7358,51.7246Z"/><path class="cls-1" d="M120.3066,376.8924,80.9592,409.3448s-37.3249-41.83-51.1149-104.4361l23.5349-38.98,26.8445,26.8445s9.0767,31.4786,13.79,41.37C99.3211,345.2818,120.3066,376.8924,120.3066,376.8924Z"/><path class="cls-2" d="M80.7261,412.3972l-1.4129-1.5826c-.3771-.4234-37.8686-42.9838-51.6236-105.4309l-.19-.8608,25.4468-42.1467,29.2391,29.2391.1578.5473c.09.3124,9.08,31.4175,13.6618,41.0317,5.18,10.87,25.93,42.1629,26.139,42.4775l1.1005,1.657ZM32.19,305.2922c12.1465,54.11,42.2555,92.7667,49.0444,100.9664l36.1373-29.8058c-4.4333-6.7248-20.6764-31.5532-25.35-41.36-4.4483-9.3362-12.49-36.7891-13.7593-41.16l-24.45-24.45Z"/><path class="cls-2" d="M82.0537,398.4323l-.6949-.9147c-9.46-12.467-32.6079-46.2751-43.1885-90.8458l-.1045-.44,16.8259-27.87,18.4689,18.4689.08.27c2.1051,7.1913,9.3093,31.3539,13.6014,40.3637,3.9646,8.32,15.7777,26.7849,22.4669,37.052l.5376.8263ZM40.4209,306.6c10.28,42.8965,32.2675,75.6725,42.0045,88.6664l24.697-20.37c-6.797-10.45-18.1575-28.2673-22.0715-36.482-4.31-9.0454-11.4349-32.8729-13.6489-40.4208L55.3249,281.9156Z"/><path class="cls-1" d="M391.6934,376.8924l39.3474,32.4524s37.3249-41.83,51.1149-104.4361l-23.5349-38.98-26.8445,26.8445s-9.0767,31.4786-13.79,41.37C412.6789,345.2818,391.6934,376.8924,391.6934,376.8924Z"/><path class="cls-2" d="M431.275,412.3972l-42.5195-35.0686,1.1-1.657c.209-.3146,20.96-31.6071,26.1385-42.4775,4.583-9.6164,13.5713-40.7192,13.6618-41.0317l.1573-.5473,29.24-29.2391L484.5,304.523l-.19.8608c-13.7555,62.4471-51.2459,105.0075-51.623,105.4309Zm-36.6458-35.9444,36.1362,29.8058c6.7883-8.2061,36.9087-46.9021,49.0449-100.9664l-21.6212-35.81-24.4514,24.45c-1.2691,4.3708-9.31,31.8236-13.76,41.16C415.3055,344.9,399.0624,369.728,394.6292,376.4528Z"/><path class="cls-2" d="M429.947,398.4334l-27.9947-23.09.5387-.8263c6.686-10.26,18.4947-28.7166,22.468-37.053,4.3018-9.03,11.4974-33.1768,13.6-40.3626l.08-.27,18.4689-18.4689,16.827,27.87-.1045.44C463.25,351.2383,440.102,385.05,430.6418,397.5177Zm-25.07-23.5378,24.6981,20.37C439.3112,382.2711,461.3,349.493,471.58,306.6l-14.905-24.6841-16.0772,16.0772c-2.2107,7.5425-9.3276,31.3539-13.6478,40.4208C423.0283,346.6434,411.6709,364.4519,404.8772,374.8956Z"/><path class="cls-1" d="M455.4214,320.8974c-28.3522,82.2986-106.58,141.5845-198.3993,141.5845-92.4259,0-171.084-60.08-198.9729-143.2282,11.716-3.9605,36.24-12.5986,52.3909-20.8394,19.5045,62.3969,77.8417,107.8045,146.582,107.8045,68.5859,0,126.8127-45.2091,146.4386-107.3964C416.3571,306.6661,440.2965,315.6131,455.4214,320.8974Z"/><path class="cls-2" d="M456.1487,318.815c-13.4119-4.6864-37.6069-13.6259-50.7992-21.4359a154.6847,154.6847,0,0,0,6.569-44.6887c0-85.5685-69.6146-155.1831-155.1825-155.1831S101.5522,167.122,101.5522,252.69a154.6906,154.6906,0,0,0,6.5,44.4561c-15.6681,7.7917-38.3559,15.8408-50.7094,20.017l-2.0852.7046.7,2.0868a212.0158,212.0158,0,0,0,401.55,1.6613l.7164-2.0771ZM256.7358,100.8169c83.7429,0,151.8729,68.13,151.8729,151.8735a151.4111,151.4111,0,0,1-6.1854,42.9191l-.8471,2.68A150.9437,150.9437,0,0,1,257.0224,404.0123c-66.5491,0-125.33-42.3406-145.1967-105.8952l-.7737-2.4916a151.4107,151.4107,0,0,1-6.19-42.9351C104.8618,168.947,172.9924,100.8169,256.7358,100.8169Zm.2866,359.4585A207.4938,207.4938,0,0,1,60.8507,320.6314c12.5521-4.2857,33.2829-11.7506,48.2773-19.0948a157.4444,157.4444,0,0,0,54.8184,75.9462,155.4481,155.4481,0,0,0,185.9741.1271,157.46,157.46,0,0,0,54.7893-75.5c12.4508,7.0275,32.302,14.6368,47.9,20.1388A207.7429,207.7429,0,0,1,257.0224,460.2754Z"/><path class="cls-2" d="M257.0224,452.553A199.769,199.769,0,0,1,71.2353,326.4092l-.4218-1.0633,1.0779-.3835c12.2343-4.35,22.9258-8.5229,31.7773-12.4024l1.0466-.4589.4218,1.0623a163.4846,163.4846,0,0,0,303.3823.93l.4385-1.086,1.058.5031c8.3494,3.9732,18.9569,8.3332,31.5284,12.96l1.07.3943-.4288,1.0569A200.0149,200.0149,0,0,1,257.0224,452.553ZM73.711,326.6559a197.6675,197.6675,0,0,0,365.9974,1.4889c-11.6471-4.31-21.5889-8.3914-29.5849-12.1427a165.6937,165.6937,0,0,1-306.6132-.9664C95.0855,318.6911,85.0716,322.5965,73.711,326.6559Z"/><polygon class="cls-2" points="256.74 105.94 261.641 115.869 272.599 117.461 264.67 125.191 266.541 136.104 256.74 130.951 246.939 136.104 248.811 125.191 240.882 117.461 251.84 115.869 256.74 105.94"/><polygon class="cls-2" points="333.224 135.861 336.69 143.179 344.44 144.352 338.832 150.048 340.156 158.091 333.224 154.294 326.292 158.091 327.616 150.048 322.008 144.352 329.758 143.179 333.224 135.861"/><polygon class="cls-2" points="378.179 192.4 381.645 199.718 389.395 200.891 383.787 206.587 385.111 214.63 378.179 210.833 371.247 214.63 372.571 206.587 366.963 200.891 374.713 199.718 378.179 192.4"/><polygon class="cls-2" points="386.453 263.832 389.919 271.15 397.669 272.323 392.061 278.019 393.385 286.062 386.453 282.265 379.521 286.062 380.845 278.019 375.237 272.323 382.987 271.15 386.453 263.832"/><polygon class="cls-2" points="356.391 324.232 359.857 331.55 367.607 332.723 361.999 338.419 363.323 346.462 356.391 342.665 349.459 346.462 350.783 338.419 345.175 332.723 352.925 331.55 356.391 324.232"/><polygon class="cls-2" points="176.846 135.861 173.38 143.179 165.63 144.352 171.238 150.048 169.914 158.091 176.846 154.294 183.777 158.091 182.453 150.048 188.061 144.352 180.311 143.179 176.846 135.861"/><polygon class="cls-2" points="131.89 192.4 128.424 199.718 120.674 200.891 126.282 206.587 124.958 214.63 131.89 210.833 138.822 214.63 137.498 206.587 143.106 200.891 135.356 199.718 131.89 192.4"/><polygon class="cls-2" points="123.616 263.832 120.15 271.15 112.4 272.323 118.008 278.019 116.684 286.062 123.616 282.265 130.548 286.062 129.224 278.019 134.832 272.323 127.082 271.15 123.616 263.832"/><polygon class="cls-2" points="153.678 324.232 150.212 331.55 142.462 332.723 148.07 338.419 146.747 346.462 153.678 342.665 160.61 346.462 159.286 338.419 164.894 332.723 157.144 331.55 153.678 324.232"/><path class="cls-2" d="M308.5356,362.79a1.1877,1.1877,0,0,0,1.3143-1.1821V298.0824a1.2659,1.2659,0,0,0-1.3738-1.2613l-3.6888.3155a2.2989,2.2989,0,0,0-2.384,2.2973v53.9048a1.6394,1.6394,0,0,1-1.4849,1.62c-16.0795,1.73-27.0529,13.3776-29.6659,16.4174a.1781.1781,0,0,0,.2289.2665C289.5659,361.788,304.1961,362.3391,308.5356,362.79Z"/><path class="cls-2" d="M209.2357,354.9584a1.6394,1.6394,0,0,1-1.4849-1.62V299.4339a2.2989,2.2989,0,0,0-2.3839-2.2973l-3.6889-.3155a1.2659,1.2659,0,0,0-1.3738,1.2613v63.5254a1.1878,1.1878,0,0,0,1.3144,1.1821c4.3395-.4509,18.97-1.0019,37.0542,8.8524a.1781.1781,0,0,0,.2289-.2665C236.2887,368.336,225.3153,356.6885,209.2357,354.9584Z"/><path class="cls-2" d="M297.0941,351.91V291.1792a1.4144,1.4144,0,0,0-1.437-1.4212c-15.0794.3795-32.4638,6.55-38.8127,9.0028a5.78,5.78,0,0,1-4.1712,0c-6.3489-2.4524-23.7333-8.6233-38.8127-9.0028a1.4144,1.4144,0,0,0-1.437,1.4212V351.91a1.6368,1.6368,0,0,0,1.1889,1.5827c4.9972,1.4153,24.64,7.7114,37.6351,22.4078a1.2677,1.2677,0,0,0,.1491.1461,5.3427,5.3427,0,0,0,2.4428,1.0184v-41.42c-3.0028-.36-5.3091-2.4457-5.3091-4.9725,0-2.78,2.7886-5.0333,6.2285-5.0333s6.2285,2.2535,6.2285,5.0333c0,2.5268-2.3063,4.6125-5.3091,4.9725v41.42a5.3427,5.3427,0,0,0,2.4428-1.0184,1.2677,1.2677,0,0,0,.1491-.1461c12.9947-14.6964,32.638-20.9926,37.6351-22.4078A1.6368,1.6368,0,0,0,297.0941,351.91Z"/><path class="cls-2" d="M256.7358,141.0837A111.4787,111.4787,0,0,0,168.44,184.51a115.7916,115.7916,0,0,0-9.75,14.2206l.1027.4942a111.4538,111.4538,0,0,0,31.5137,143.0782v29.4129a1.09,1.09,0,0,0,1.2778,1.0819c5.1178-.9013,24.4537-3.9833,36.8-1.4893a.1834.1834,0,0,0,.1364-.3353c-2.9088-1.8294-13.5129-7.5924-29.7629-6.1743a.9175.9175,0,0,1-1.005-.9067V309.5006a2.2989,2.2989,0,0,0-2.3839-2.2973l-3.6889-.3155a1.2659,1.2659,0,0,0-1.3738,1.2613v31.3893a109.2487,109.2487,0,0,1-30.8121-136.9377l.1329.64c.0189-.0351.0372-.07.0562-.1054,1.2212.2569,1.5379-.3755,2.4363-.4355.1331,1.3207-.3573,3.2545.443,3.9191-.6607.9473-1.4921,1.7268-1.1075,3.7013,1.0979.2812,1.0883-.527,1.9933-.4354-.3748,1.9541-1.6183,3.0542-1.329,5.6609.1941.699-.5743.4514-.6645.8708.334,6.1308-.7349,13.6409.6645,18.7244,2.3453-.8151,2.0631-4.2134,3.9866-5.443.1069-3.8866,2.753-5.277,1.9933-10.0156.69-.7732,2.2329-.7077,2.2147-2.177,1.1841.3658.96-.6527,1.7718-.6533.9152-3.0919,4.0132-4.0383,5.5369-6.5317,1.56.3,1.3161-1.1739,2.4363-1.3063v-1.7418a1.2022,1.2022,0,0,0,.8858-.871c3.0428.3058,4.5824-.8658,6.4228-1.7418-.0084,2.0406-.1745,4.236,1.7718,4.3546.2188.8684-.6621.6557-.4431,1.5241,1.5463,1.6434.2069,4.7942,0,6.7495,2.5043.863,3.301-1.8335,5.3154-2.1773-.85,4.0144,1.8816,7.5506,0,10.4508,1.3084,1.9576-1.1434,4.8445-.6645,8.0558.0933.4891,1.1753.0059,1.329.4355a4.2521,4.2521,0,0,0,1.9933,3.2659c-.4445,1.8132.7382,3.8671,0,4.5722.122.751.8044.9512,1.329,1.3065-.0238,3.87,4.3252,3.441,5.3153,6.314.6012-.1348,1.7578.2765,1.9933-.2178.0806-.7323-.96-.3628-1.3288-.6533a5.0116,5.0116,0,0,0-1.329-4.1367v-5.2254c-1.7747-1.2309-2.4359-3.5566-5.3153-3.7013.4494-2.2562-1.07-2.5767-.6645-4.79-.0931-.4891-1.175-.0059-1.3288-.4355.0663-2.112,1.15-3.2243,1.9934-4.5722-.1516-1.8182.3327-3.0113,1.3288-3.7014,1.0264-.1382.5611,1.19.6645,1.96,1.7421-.3336,2.0513.741,3.3221.8708v2.1773c.623.331,1.7505.1664,1.329,1.5241.6929.0444,1.6258-.1468,1.9933.2177v3.7014c1.4393-1.27,3.6626-1.77,4.2081-3.9191a9.11,9.11,0,0,0,5.7584-4.1367v-6.7495c-.9272-.4875-.8238-.9653-1.3288-1.96-.4278-.8418-2.2441-1.69-2.6578-2.3951-.1221-.2077.1422-.6785,0-.8708-.7452-1.0076-1.8777-1.4324-1.329-3.9192,2.4864-1.2573,3.5206-3.9417,7.0872-4.1369,1.0754.54.4658,2.7354,1.9933,2.8306-1.3236.6583-3.41.567-3.765,2.1771-.0018,1.2357,1.0364,1.4487,1.55,2.1773,2-.4286,2.45-2.3811,3.7651-3.4837.0414-1.0567-1.2929-.761-1.329-1.7418,1.0116-1.7633,3.3921-2.181,5.7584-2.6126,1.9682-2.0688,3.8864-1.5554,7.3087-1.96a5.1248,5.1248,0,0,1,1.1075-1.96c3.3522.32,2.8511-3.1485,5.7583-3.2658-.5035-3.0353,2.6264-2.4986,2.6578-5.0077,2.2221-.2106,2.2836-2.5451,3.3223-3.9192-.31-.6387-2.1261.2032-2.4363-.4354-.146-.942,1.5516-.0714,1.7718-.6533.8282-3.2818-2.3339-2.6409-1.9933-5.4432a14.4676,14.4676,0,0,1-1.7718-1.7418c1.5177-1.411,2.9187-2.9366,5.7584-3.0481v-1.0887c-.7387-.5078-2.6565.1437-2.8793-.871-.8366.4115-1.6.8951-2.4363,1.3065-.6922.0995-.7082-.4653-.6645-1.0888-.7207-.38-1.9251-.2848-1.7718-1.5241,3.7318.33,4.036-2.7094,7.53-2.6128-.3788,1.2242-1.32,1.8951-1.7718,3.0481,1.7528.0364,3.7285-2.6991,6.6444-1.524a1.7657,1.7657,0,0,1-.6645,1.96c.1407,1.241,1.6479,1.1377,3.1008,1.0885-.4651,1.8557-.1885,2.666-.443,5.2254,2.38-.0553,3.8891-.9668,5.98-1.3063.3978-3.5845-1.08-5.3252-3.3221-6.3142.3876-1.4332,2.394-1.2754,3.3221-2.1773-.0359-2.14,1.9942-2.249,3.1005-3.2658,4.2739,2.365,6.4564-2.1368,9.3018-3.2661a4.0446,4.0446,0,0,1,2.2147-2.6126v-4.3546c2.3668.5764,1.6576,4.1767,3.3223,5.4432-.2625,1.6281-.1411,2.51.6643,3.4836-.1949,1.4052-2.1358,1.094-2.6578,2.1773,1.4238,1.3828,1.7755,4.7066.6645,6.7495-.8373.3151-.4249-.5984-1.1075-.4355-.8265.4839.5619.5839.2215,1.3065-2.1479-.2974-2.4425,1.2275-4.2078,1.3063-.48-.0366-.1.7724-.2215,1.0888-1.7563-.9461-3.07.8-5.7583.2178A16.603,16.603,0,0,1,259.79,181.58c-.1876,1.8535,1.2688,2.0913,1.3288,3.7013.5511.2567,1.2588.3593,1.55.871,1.5269-.0958.7607-2.4456,1.7718-3.0481.16-1.2457-1.2674-.9316-1.1073-2.1773h1.55c.453.353-.01,1.6066.4428,1.96,1.3793-.0233,1.718-1.0694,3.5436-.6533.65-.305-.2066-2.09.443-2.3951.7739.6908,1.0617,1.86,1.9933,2.3951.839-.5542,1.7982-.99,1.7718-2.3951,1.8487.3977,3.978.8009,4.6511-.6532.7063-.1866.6849.3427,1.107.4355.5826.0644.1743-.8447.886-.6533a10.7011,10.7011,0,0,1,1.329-6.7495c-.7653-1.28-2.2854-1.8174-2.4363-3.7014,1.1764-.0677,2.3083-.0916,2.6578.6533,1.0936-.3763,1.1346-1.7873,3.1006-1.3063.1212-.3167-.2589-1.1254.2215-1.0888-.6242-.9834-2.3136-.9191-3.9866-.871-.1667-1.2878-2.0457-.8919-2.2147-2.1773.19-.6119,1.1977-.4192,1.9933-.4355.0725-1.2325-1.15-1.1919-1.9933-1.524v-1.524c.1537-.43,1.2358.0535,1.3288-.4355v-.871c-2.5882-.4309-2.23-3.7588-4.208-4.79-.8821-.0688-.6,1.0071-1.3286,1.0888-1.4881-.8216-3.1516-1.531-4.8726-.4355-.2365-.8133.55-.6206.443-1.3063-1.0339-.4213-1.4156.9113-1.9933.2178-.26-1.1449,1.4022-.9456,2.4363-1.524,1.2255-.6855,3.3081-3.3573,5.0936-1.3063,3.8282-.4249,6.1949.587,9.5234.6533l.0245-.0083c.5649-.2428-.0886-1.6842.4408-1.9587h2.2147c.1238.6043.762.7025.8858,1.3065,1.0786.2619.6-1.0066,1.7718-.6533-.3546.8854-.1876,2.2832-1.7718,1.96-.3281,4.2665,5.5932,4.3836,4.6509,7.8383,1.0783-.0288,1.0911-1.1049,1.9933-1.3065-.5892-2.4662,1.8781-1.9278,1.329-4.3544-.81-1.3812-3.5232-.891-3.7651-2.8305,1.6095.4418,1.3768.6313,2.8791,0,.8254-.23.715.4583,1.1073.6532a11.1632,11.1632,0,0,1,3.2578.5182l-1.2746-1.0906a109.3463,109.3463,0,0,1,21.2875,190.3859V308.1491a1.2659,1.2659,0,0,0-1.3738-1.2613l-3.6888.3155a2.2989,2.2989,0,0,0-2.384,2.2973v54.3916a.9175.9175,0,0,1-1.0049.9067c-16.25-1.4181-26.8541,4.3449-29.7629,6.1743a.1834.1834,0,0,0,.1364.3353c12.3465-2.494,31.6823.588,36.8,1.4893a1.09,1.09,0,0,0,1.2778-1.0819V344.6931a111.5768,111.5768,0,0,0-63.1118-203.6094Z"/><path class="cls-2" d="M241.6285,203.1335a14.6571,14.6571,0,0,0,2.8793-6.5317l0,0c-3.2849-.6162-2.7334,2.539-4.6516,3.2663A2.8211,2.8211,0,0,0,241.6285,203.1335Z"/><path class="cls-2" d="M238.528,214.8918c-.404,1.9214.5666,2.4913.6645,3.9191.3221.1191,1.1447-.2543,1.1075.2178.165.67-.608.4185-.4431,1.0885.4187.0965,1.335-.2959,1.1075.4355-.0569.4521-.973.0595-1.1075.4355.293,1.3087.6391,2.5652,1.7718,3.0481a1.817,1.817,0,0,0,.886-1.7419c-.09-.42-.8585-.172-.6645-.871.0764-.65.5948-.8667,1.1075-1.0886.2736.7044-.7165.1666-.443.871.9893.5814,2.48.0425,3.3223-.2178.4724,1.4162.2277,1.5258,0,3.0481,1.2907-.3979.9208.8368,1.9933.653.585-1.2876-1.2913-1.5214-.2215-1.9593v0c.1484.871,1.24.8122,1.329,1.742-1.2229,1.1167.32,2.1477.2215,3.4837a1.9092,1.9092,0,0,0,1.3288-.2178c.2709-.9923-.6076-.8543-.4431-1.7418h1.1073v-2.6128q-.725.0594-.6645-.6531h-2.4363c-.1522-1.1567-1.1781-1.4545-.886-3.0483a5.5756,5.5756,0,0,1-2.4363-.8708c-.2023.7116-2.3641,1.1536-2.2148-.2178.0441-.6826,1.449-.0272,1.329-.8708-.2-.4564-1.25-.0775-1.329-.6532v-1.3063a5.9332,5.9332,0,0,0,1.9933-.871V210.32c-1.7071.4444-1.7091-.7874-3.1006-.6533-.5509.4022-.7418,1.158-1.55,1.3065v3.7012A1.9093,1.9093,0,0,1,238.528,214.8918Z"/><path class="cls-2" d="M244.951,227.5187c.0645.9341-1.0435.7158-1.1072,1.524-.1037.9729.5522,1.1989,1.1072,1.524,1.5-.34,1.8024-1.8568,4.2081-1.3063.1925-.8425-.5409-.7747-.6645-1.3063-.827-.2328-.6315.54-1.3282.4352.6355-.4165,1.3282-2.0879.221-2.3949-.4986.09.033,1.1938-.6645,1.0886-1.2349-.7456-.8545-3.079-3.5436-2.3951.3825,1.4648-.5613,1.6255-.6645,2.6128C243.2606,227.4388,244.5721,227.02,244.951,227.5187Z"/><path class="cls-2" d="M250.4884,228.6072l0,0v1.742a1.9091,1.9091,0,0,1-1.3288.2178v1.0886c-.7553.1285-1.1637.5979-1.9933.6532V231.22c-1.797.4094-5.3357,2.1013-3.5436,3.9189.4986-.09-.033-1.1937.6645-1.0885.6931.8967,1.5742.15,2.2148-.2178a1.1989,1.1989,0,0,1,1.1073,1.0885c-.197.3872-.6185.5536-.4431,1.3065,1.0714.9788,1.9958,2.1022,3.9866,2.1771.2452-.92-.5214-2.835.4431-3.0481.48-.0366.1.7724.2215,1.0888,1.452-.0244,1.2533-1.6713,1.9933-2.3951-.9425-.38-.6275-1.9957-.6642-3.2659-.4321-.5187-1.3164-.5929-1.1075-1.7418C251.1205,229.2923,251.1757,228.5846,250.4884,228.6072Z"/><path class="cls-2" d="M164.7785,239.0583c4.5918.7665,2.586-7.0014.886-7.8381v-.0011C165.4319,233.8932,164.4108,235.7963,164.7785,239.0583Z"/><path class="cls-2" d="M221.2531,244.2842c-.824,1.5123-2.88,1.8132-3.765,3.2658-1.54.4251-1.2624-.9363-2.6578-.6532-.5507.4022-.7416,1.158-1.55,1.3065-.3274,2.7167,1.0869,3.7214,1.329,5.8785.5872.0035,1.3039-.1208,1.3288.4355-.4459,1.8174.7178,2.0523.6645,3.4837h3.1008a1.8226,1.8226,0,0,1,.2215,1.3063c1.7871-1.0561,5.7542-1.759,5.98,1.3063,1.6906-.2465,2.5821-1.1117,3.9866,0-.4484-2.7631,1.0957-3.5677.6645-6.314.7819-.1749.7033-1.1955,1.9933-.8708.0955-.7046-.2912-1.8831.4431-1.96,1.2226-.0409.95,1.3884,2.2147,1.3063.4639-1.98-1.5062-1.5674-1.9933-2.6126-.066-1.1538,1.74-.4673,2.6578-.6532.408-1.8527-1.255-1.6691-1.9933-2.3951.441-1.8849-.64-2.2734-1.1073-3.2659.6566-.2979.2459-1.6454.6645-2.1771h1.7718c-.3757-1.6031,1.2014-1.2865,1.3288-2.3951-.8355-.7027-1.2156-1.8533-3.1006-1.524-.132-1.2492-1.2255-1.5533-.886-3.2659l0,0c-1.0721-.1829-.7022,1.0518-1.9935.6533.1825,1.776-1.6019,1.6186-1.55,3.2658h-1.1075a1.8241,1.8241,0,0,1-.2215,1.3065C224.0043,239.8145,224.2172,243.5915,221.2531,244.2842Z"/><path class="cls-2" d="M203.3135,251.0343c-.482-1.6308-2.3984-1.8515-2.8793-3.4837-2.1244-.8871-4.7275-1.3037-5.0939-3.9191-2.5206-.1346-2.5893-2.68-3.9866-3.9189-1.36.1034-2.5428.0322-3.1005-.6533h-.886l0-.0007c.0952,2.6631,1.617,3.9261,3.3225,5.0084.87,3.9341,5.2037,4.4644,5.3153,9.1445a4.2832,4.2832,0,0,1,1.329,3.2658,4.4973,4.4973,0,0,1,1.3288,2.83,1.9089,1.9089,0,0,1,1.3288.2178c.1149,2.6448,3.3613,2.2113,3.9866,4.3544a5.1488,5.1488,0,0,1,3.3221.6533c1.3122-2.0907-.9848-4.33.886-6.314.6818-.1623.4257.5975,1.1075.4354.7393-1.7309-2.0429-1.5251-1.329-3.9191-1.1484-.2582-1.3653.4-1.9933.6531-.107.6857.68.4932.443,1.3065-2.0584-.444-1.5153-3.4453-3.765-3.7013C202.47,251.9467,203.621,252.2074,203.3135,251.0343Z"/><path class="cls-2" d="M261.1182,256.0415h1.9934c-.2093-1.3183-1.8292-1.25-1.329-3.2658h-.6643v0C260.591,253.7921,261.32,254.7046,261.1182,256.0415Z"/><path class="cls-2" d="M271.75,255.3887c-1.0592-.265-.4754-2.1453-1.3288-2.6126-3.1433-.1419-6.1652.24-7.9731.2178-.5189,2.397,2.7772,1.0437,3.3221,2.3949.085.7368-.98.3427-.6645,1.3065,1.535.3539,2.8363-.4592,3.3221-.4355h0c-.175,1.28-2.3125.6315-2.658,1.742q2.3264-.0009,1.9933,2.6126a4.5309,4.5309,0,0,1,5.0939.6533c4.4.4645,7.6819,2.0282,8.1946,6.314-1.42.2006-2.3357.8972-1.9935,2.8306,3.49-.6378,5.9407-.7854,7.3086,1.9593a12.2245,12.2245,0,0,0,5.3154-.6531c-.3894-1.3991,1.0143-1.035.6645-2.3951,1.7255-1.1859,3.5614.084,5.3154.6533.4078,1.9214,1.842,2.8339,2.6575,4.3544h3.7651c.4734.696.8083,1.528,2.2148,1.3065-.43-2.2625-2.046-3.3593-3.9866-4.1369.35-1.36-1.0539-.996-.6643-2.3951a1.91,1.91,0,0,1-1.329-.2176c.4047-1.2686-.8512-.9052-.6642-1.96.0246-.5563.7415-.4322,1.3288-.4355.0467-2.2957-2.2562-2.2814-3.9866-2.83v-1.7419c-1.63-1.01-3.5934-1.6928-4.6509-3.2658-2.8888.0819-4.5992-.9945-6.4228-1.96-3.3686.2634-4.765-1.4119-6.6441-2.6129-1.5082,1.783-3.8672,2.73-5.3151,4.5724-.6267-.0375-1.5193.1871-1.5506-.4355v-1.5241c-.3218-.1191-1.1447.2544-1.1072-.2178C271.142,255.8072,271.9151,256.059,271.75,255.3887Z"/><polygon class="cls-2" points="259.125 255.389 259.125 255.389 259.125 255.389 259.125 255.389"/><path class="cls-2" d="M259.1247,255.3888a3.439,3.439,0,0,0-1.9933,1.0887C257.9018,257.0783,259.1269,256.27,259.1247,255.3888Z"/><path class="cls-2" d="M256.4676,258.4375c.9263.4853-.0279.7308,0,1.524,1.6147.4262,1.335-1.01,2.4361-1.0887,1.42.5134,2.7639-.0734,4.2081,1.0887l.0009,0C263.9787,257.49,257.6814,256.1619,256.4676,258.4375Z"/><path class="cls-2" d="M252.4823,259.9615c1.3614.1043,2.499-.0108,2.6575-1.0887h0A1.4382,1.4382,0,0,0,252.4823,259.9615Z"/><path class="cls-2" d="M206.6362,266.2742c1.9031,1.2238,5.0954,3.5172,7.53,2.1773.5826-.0646.1745.8447.886.6531a9.3064,9.3064,0,0,1,4.6511,1.3065c2.054.158,4.9089-.4715,5.98.653.7972-1.33,1.2789.1217,2.6578,0a1.8223,1.8223,0,0,0,.2215-1.3063c-1.49.158-2.3378-.3144-2.6576-1.3063-.936-.2411-2.8839.5126-3.1008-.4355.88-.4411,2.5568-.099,2.4363-1.524-1.4595-.1285-2.652.0055-3.3221.6533-1.4114-.5721-2.6048-1.3583-4.6508-1.3065-.1212.3164.2587,1.1254-.2215,1.0888v0c-1.8252-.601-4.4034-.4616-5.5375-1.742C208.6767,265.2584,207.6562,263.9,206.6362,266.2742Z"/><path class="cls-2" d="M253.8109,268.6695h0c-.1683-.29-2.1663-.5443-1.9935.2178C251.9844,269.1766,253.9823,269.4334,253.8109,268.6695Z"/><path class="cls-2" d="M230.7777,269.7585c-1.1857-.0043-1.5846.7648-1.55,1.96,2.3227-.3271,4.7066.1757,7.3086-.6533l.0007,0C235.9542,267.9076,231.9959,271.6442,230.7777,269.7585Z"/><path class="cls-2" d="M242.5144,271.7178v-1.3063l.0006,0c-1.85.1655-4.1775-1.8748-4.6515.6533C239.8734,270.83,240.2554,272.1967,242.5144,271.7178Z"/><path class="cls-2" d="M249.8239,269.976h0c-.1661-.29-2.164-.5465-1.9935.2178C247.9974,270.4832,249.9953,270.74,249.8239,269.976Z"/><path class="cls-2" d="M246.5025,274.9839c1.0043-.1015,1.168-1.0293,2.6578-.6533.9391-2.1246,3.7294-2.43,5.5366-3.7013l.0007,0c-.35-1.8814-2.0112.5771-3.987-.2178C249.8828,272.5011,245.8543,271.4437,246.5025,274.9839Z"/><path class="cls-2" d="M305.4141,272.5888c1.0761.1761,1.2056,1.2824,1.9933,1.7418.2928-.0024.2025-.3814.443-.4352-.4957-.9642-.9516-1.9676-2.2148-2.1773v0C305.6843,272.1294,305.3852,272.1991,305.4141,272.5888Z"/><path class="cls-2" d="M240.5228,274.3309c.1455-1.2319-1.2909-.9083-1.329-1.96h-2.6575v1.3065C238.4764,273.2944,238.5308,274.7649,240.5228,274.3309Z"/><polygon class="cls-2" points="249.159 248.205 249.159 248.205 249.161 248.205 249.159 248.205"/><path class="cls-2" d="M237.6429,250.8176h-1.1075c.0088.662.1287,1.433-.6645,1.3063.7442,2.5122-.1916,4.2277-.6645,7.185.6929.0444,1.6258-.1467,1.9933.2178.406,2.0687-.5646,2.7833-.6645,4.3544h2.6578c.3722-2.029-.7872-5.564.6645-6.5317,1.1093.724.521,3.1167,1.7718,3.7014-.02.3431-.5648.17-.443.6532.35.5993,1.1319.7741,1.3288,1.5241.6978.1052.5017-.6683,1.329-.4355v1.0885h1.3288c-.2891-1.3.3394-1.6984.6645-2.3948-1.7837-1.0046-2.1889-3.3641-3.1008-5.2254a8.637,8.637,0,0,0,1.55-2.1773c.0259.4283,1.4681,1.2309,1.55.2178.0385-.6187-1.449.2632-1.1075-.6533,1.1544-.0261,1.1345-1.2068,1.3288-2.1771,1.8026.32,1.248-1.6763,3.1008-1.3063v-1.9592C245.4666,250.6223,238.5221,245.8318,237.6429,250.8176Zm7.9722-.6546c-.31,1.1462-.674,2.24-1.7718,2.6126l0,0c-.5715-1.3239-2.0289-1.7769-3.101-2.613Zm-3.1012,2.1768c-.5347.7635-3.1116.4946-3.9866.2178v-.8708l0,0C239.486,251.4624,242.5117,250.918,242.5139,252.34Z"/><path class="cls-2" d="M255.14,256.0429c1.1676.1317,1.7935-.2689,1.9933-1.0886-.3542-.668-1.3008-.7532-1.3288-1.7418,1.4548-.2393,1.11-2.2472,3.3221-1.7418.2-1.2847-1.2712-.9277-1.3288-1.96-.1931-.8432.9668-.3559.6643-1.3063-.053-.3107-.3646-.3674-.4431-.6533-.8831-.2151-.6667.6506-1.55.4355-.05-.91.36-1.0285,0-1.7418h-.6645v-.0013A20.4532,20.4532,0,0,0,255.14,256.0429Z"/><path class="cls-2" d="M130.1238,383.5c-2.4055.6284-4.3586,2.1584-6.47,3.348-1.2707.716-2.0325.7129-3.0679-.3886-3.7316-3.97-3.7854-3.9422-.8749-8.4971,1.4847-2.3236,3.048-4.5969,4.5412-6.9152.5731-.89,1.4239-1.5751.7386-3.0078-.4725-.9878,1.0314-1.5057,1.742-2.0984.726-.6056,1.09.2563,1.4952.6859,1.456,1.5436,2.9158,3.0846,4.3327,4.6637.3681.41,1.2675.8615.5033,1.5233-.73.6323-1.17,2.1936-2.4071,1.5707-1.1614-.5849-1.3381.1312-1.77.73-1.2366,1.716-2.47,3.4341-3.7426,5.2034.96.4143,1.5674-.3437,2.2122-.7182,2.3233-1.35,4.6369-2.7247,6.8717-4.2139a1.8238,1.8238,0,0,1,2.7391.3322c3.52,3.7341,3.5013,1.9029,1.0081,6.4673-1.1507,2.1066-2.3643,4.1788-3.5357,6.2743-.0459.0821.0505.2437.1159.5141,1.92-1.3506,3.7984-2.6712,5.6756-3.9939.3824-.2695.5975-.58.296-1.0568-.9657-1.5284.6559-1.94,1.2857-2.6424.8365-.9334,1.3229.2642,1.8445.6766q5.1571,4.0778,10.2467,8.24c.5349.4371,1.6608.8086.964,1.7621-.5378.7359-.7132,2.2161-2.2287,1.7151a.9872.9872,0,0,0-1.2555.4756c-1.4206,2.1056-3.21,3.9539-4.3433,6.2608a2.833,2.833,0,0,0,4.5617,3.2827,44.75,44.75,0,0,0,4.546-6.1218,1.0337,1.0337,0,0,0-.0626-1.3318c-.8009-1.256.4766-1.8985,1.0157-2.6642.6867-.9752,1.3787-.063,1.9738.3181,1.37.8772,2.7141,1.7955,4.0388,2.7393.516.3676,1.5593.5831,1.0107,1.5121-.4841.82-.6405,2.3448-2.0255,1.9905-1.0627-.2718-1.2249.3722-1.5888.9-.8837,1.2807-1.7739,2.5611-2.576,3.8931-4.8013,7.9735-11.5261,5.381-15.5347.4009-2.3887-2.9676-2.3719-6.37-.0261-9.5853,1.208-1.6559,2.5242-3.2326,3.7772-4.8561.503-.6518,1.2167-1.2189.1523-2.11-.861-.7207-1.458-1.0767-2.5489-.317-3.4221,2.3831-6.9736,4.581-10.3832,6.981-1.4064.99-2.3193.9691-3.6061-.2636-3.8188-3.6585-3.8761-3.5974-1.42-8.33.5835-1.1245,1.16-2.2526,1.7388-3.38a.7636.7636,0,0,0,.1372-.1141c.0153-.02-.0122-.073-.02-.1109Z"/><path class="cls-2" d="M182.0967,417.23c.3173.5056.6309.9668.9057,1.45a4.6425,4.6425,0,0,1-.2807,5.0165,4.2963,4.2963,0,0,1-4.3152,2.1293,14.0282,14.0282,0,0,1-5.2411-1.6186c-3.0911-1.5641-6.1484-3.196-9.1991-4.8381-.55-.2958-1.6183-.55-.9339-1.4748.5343-.7223.377-2.4425,1.9624-1.9017,1.0432.3558,1.2252-.2544,1.5679-.8627q2.2386-3.9727,4.4773-7.9454c.2754-.49.6827-1.0706.1157-1.5336-1.5-1.2248.036-2.06.4583-2.8468.6158-1.1478,1.49-.1292,2.1483.2147,3.3206,1.7339,6.6993,3.383,9.8828,5.3456,3.01,1.8557,3.3639,4.6244,1.4194,7.23C184.3,416.62,183.1151,416.6366,182.0967,417.23Zm-4.8046,1.3284c-.04-1.3747-2.03-3.1541-3.2388-3.0749-.43.0281-2.4688,3.1046-2.2411,3.6051.5927,1.3028,1.9106,1.6163,3.14,1.7022C176.5237,420.9009,177.1551,419.81,177.2921,418.5589Zm.3676-4.9309a2.1653,2.1653,0,0,0,2.0219-2.1036c.1424-1.5034-1.0789-2.002-2.2134-2.3994-.5375-.1883-2.2518,2.1966-2.0883,3.0211C175.6209,413.3605,176.8831,413.142,177.66,413.628Z"/><path class="cls-2" d="M390.1954,389.1431a5.6929,5.6929,0,0,1-1.8309-1.71c-.6476-.7191.0668-1.1169.4315-1.5943.3061-.4007,1.0431-.7432.28-1.3448a1.0578,1.0578,0,0,0-1.5278.0272q-1.6809,1.6147-3.3655,3.2256a1.1137,1.1137,0,0,0-.0509,1.693c.5188.609.843.0113,1.2014-.2774,1.48-1.192,1.6935.58,2.4118,1.0786.7474.5185.62,1.0947-.0917,1.7033-1.8771,1.6059-3.7013,3.2744-5.5269,4.94-.5815.53-1.1784.9742-1.72.08-.4682-.7738-2.1422-1.2644-.8949-2.5344.7993-.8138.5074-1.4689.1633-2.278-.9947-2.3386-1.88-4.7266-2.95-7.029-.5328-1.146-.5883-2.5284-2.5576-2.8664-1.8011-.3091-1.8721-2.0986-.4531-3.4764,1.7216-1.6718,3.5012-3.289,5.1436-5.0352a2.0134,2.0134,0,0,1,2.7643-.4427c3.9438,1.9,7.9427,3.686,11.9136,5.53.7187.3338,1.435.7908,2.0641-.07.8069-1.1039,1.3532-.37,2.04.1658,1.0844.8469,1.3887,1.5586.2317,2.6782-2.2321,2.16-4.3366,4.4514-6.5,6.6824C391.0374,388.6328,390.7636,389.0762,390.1954,389.1431Zm-9.945-9.1725-.3882.3445c.4636.9894,1.0073,1.95,1.3722,2.9747.5654,1.5873,1.1473,1.7694,2.4075.4964,1.153-1.1646,1.0931-1.731-.3992-2.3291C382.2122,381.044,381.2456,380.4717,380.25,379.9706Z"/><path class="cls-2" d="M110.63,345.2245a4.2455,4.2455,0,0,1-5.3035,4.21c-1.4969-.4289-1.4751.0833-1.4368,1.2077a4.4028,4.4028,0,0,1-2.857,4.314,4.4493,4.4493,0,0,1-5.1237-.7665,12.78,12.78,0,0,1-2.8489-3.396c-1.8149-3.1937-3.629-6.3882-5.4118-9.6-.3106-.56-1.0506-1.32-.08-1.7962.8254-.4054,1.6882-1.71,2.7334-.5856.7726.8311,1.3363.4592,2.03.0914,2.1868-1.1588,4.4227-2.2352,6.5429-3.5049.9484-.568,2.7966-.468,2.1595-2.6636-.1979-.6817,1.3741-1.0111,2.1748-1.4021.8756-.4275,1.0352.4641,1.3206.97,1.5975,2.8288,3.191,5.66,4.7435,8.5138A8.5891,8.5891,0,0,1,110.63,345.2245Zm-11.044,1.0195c-.4355-1.0611-.49-2.9793-2.01-2.8178-1.1866.1261-3.0594.6522-3.3443,2.348-.2043,1.2161,1.9145,3.0136,3.13,2.9177A2.2219,2.2219,0,0,0,99.5856,346.244Zm4.2766-6.6643c-.8809.8976-2.7682.7408-2.7784,2.2434a2.202,2.202,0,0,0,2.1583,2.2211,1.9683,1.9683,0,0,0,2.1537-2.1056A2.476,2.476,0,0,0,103.8621,339.58Z"/><path class="cls-2" d="M112.9437,377.5744c-.5033.0423-.7494-.3187-1.017-.6468-2.1443-2.6286-4.28-5.264-6.4391-7.8805-.5508-.6675-.707-1.28.2-1.6764.8062-.3523,1.3382-1.9927,2.593-.5831.3792.4259.6579,1.57,1.5656.673.6092-.6023.3081-1.2785-.1811-1.8952-.7906-.9965-1.5859-1.9962-2.2822-3.0582a1.3,1.3,0,0,0-1.7819-.6391c-1.0189.4827-.1707,1.01.0682,1.4942.7319,1.4839-.8047,1.5183-1.3863,2.1322-.654.69-1.19.4026-1.688-.3219-1.4008-2.0361-2.8563-4.0345-4.2829-6.0528-.4272-.6043-.8512-1.323.1246-1.72.8226-.3347,1.5054-2.0163,2.6106-.5591.6919.9122,1.3748.7223,2.2264.4634,2.3664-.7194,4.7513-1.378,7.1182-2.096,1.3663-.4144,2.7454-.42,3.488-2.3.72-1.8223,2.19-1.6216,3.4558.0645,1.4422,1.9207,2.8469,3.871,4.34,5.7512a1.8685,1.8685,0,0,1,.1527,2.5954c-2.3883,3.6685-4.63,7.4329-6.9044,11.1747-.3777.6213-.981,1.1658-.3713,2.09C115.1939,375.5559,114.0673,377.4989,112.9437,377.5744Zm2.7694-18.8692c-1.6064.4719-2.61.754-3.6048,1.0616-2.2379.6918-2.2026.7119-.849,2.5515.7745,1.0528,1.319,1.3655,2.0817.0235C113.9581,361.2559,114.7023,360.2421,115.7131,358.7052Z"/><path class="cls-2" d="M401.916,361.9211c2.1527-1.1526,3.8863-1.3475,5.5955-.1077.3937.2856.8739.6028,1.3174.0965.3952-.4511-.0477-.7681-.29-1.0831-.4592-.597-.1757-1.0636.2568-1.48.47-.4525.9187-.1531,1.3362.12a3.9225,3.9225,0,0,1,2.1718,3.4163c-.073,2.552-1.7259,4.1237-3.6921,5.3444-1.7831,1.107-3.53.5955-5.1228-.5939-1.03-.77-2.0288-1.6913-3.3615-.5238-.6149.5387-1.0068,1.1355-.0571,1.6544,1.04.5683,1.564,2.55,3.4545.9827.7535-.6246,1.6259.8085,2.35,1.3991.7524.6139-.0395,1.1539-.3886,1.5819-1.4745,1.808-2.9913,3.5824-4.5268,5.339-.4086.4674-.7351,1.5429-1.5873.8-.7216-.629-2.174-1.0818-1.6507-2.3713.47-1.1575-.21-1.5532-.8155-2.0908-1.7979-1.5953-3.5856-3.2054-5.4464-4.7249-.8626-.7044-1.4472-2.0781-3.1438-1.08-.7173.4222-1.4774-.8721-2.1132-1.4941-.6966-.6814.0616-1.1518.4336-1.5932,2.2752-2.7,4.4789-5.4695,6.899-8.0341,2.2265-2.3595,4.2215-2.659,6.4431-1.4776C402.3095,357.2408,402.7894,359.1731,401.916,361.9211Zm-5.7765-1.0055a3.18,3.18,0,0,0-2.6161,2.2051c-.157.4288,2.8278,2.9592,3.2509,2.7421a2.996,2.996,0,0,0,1.7158-2.7114C398.4964,361.6646,397.4137,361.15,396.14,360.9157Z"/><path class="cls-2" d="M259.5357,424.39c5.3068-.0976,5.2841-.0887,7.2276,4.8834,1.002,2.5635,2.0982,5.09,3.1577,7.6311.52,1.2476.6752,2.64,2.7048,2.6338,1.1432-.0035.5177,1.5216.7,2.3434.19.8591-.4181,1.03-1.15,1.0635-3.3168.1521-6.6338.3108-9.9472.5224-1.1071.0706-1.5595-.3286-1.4885-1.4353.0637-.9936-.42-2.2526,1.3863-2.1677.398.0187,1.2622.42,1.1311-.6649-.09-.7435-.444-1.1539-1.2292-1.1352-1.5532.0369-3.1074.0461-4.66.103a1,1,0,0,0-1.0668,1.0679c-.016.7475.5418.6844,1.0322.7208,1.8891.14.8369,1.5846,1.0224,2.4331.2416,1.1054-.5665,1.26-1.4357,1.2325-2.4-.0747-4.8-.1626-7.2-.1993-.8834-.0135-1.4056-.3251-1.1677-1.2437.2105-.8131-.655-2.2442.986-2.2873,1.1313-.03,1.4039-.61,1.703-1.4737.8543-2.4679,1.8174-4.8984,2.6518-7.3726.4036-1.1969,1.2634-2.1981.0611-3.7563-1.1073-1.4351.0771-2.8779,1.9776-2.8965C257.1327,424.38,258.3343,424.39,259.5357,424.39Zm.0891,4.6217c-.6441,1.9736-1.1,3.3425-1.5342,4.7185-.1315.417-.1807.97.355,1.0343a9.607,9.607,0,0,0,2.5235-.035c.529-.0777.4843-.6291.34-1.0429C260.8339,432.3222,260.3321,430.9669,259.6247,429.0116Z"/><path class="cls-2" d="M408.24,337.1734c3.8956.6585,8.2818,1.4018,12.6688,2.14,1.0822.1821,2.0773.6139,2.8778-.8435.6615-1.2042,1.5847.1349,2.3554.3591.836.2432.9263.87.4658,1.6759-1.6457,2.8808-3.2441,5.7891-4.8286,8.7043-.4236.7793-.84,1.3811-1.74.6086-.6884-.5909-2.2812-.6025-1.4281-2.2314.2423-.4626,1.0416-1.0576.1373-1.5566-.8429-.4653-1.4242.0022-1.864.8031-.6456,1.1756-1.38,2.3025-2.0791,3.4485a1.16,1.16,0,0,0,.235,1.6847c.77.6351.9359-.1536,1.252-.54,1.1819-1.4432,1.8006.2467,2.6368.5189,1,.3257.63,1.0687.2138,1.706-1.3144,2.0106-2.6451,4.0109-3.9341,6.0376-.48.7549-1.0233,1.314-1.8282.5458-.6278-.5992-2.4034-.6806-1.2913-2.2436.5432-.7634.2421-1.2489-.234-1.8481-2.0191-2.5413-4.0061-5.1082-6.0056-7.6652a1.6776,1.6776,0,0,0-1.5559-.7217c-2.34.0153-3.0554-1.4679-1.8458-3.47q1.8621-3.0819,3.71-6.1724A1.5548,1.5548,0,0,1,408.24,337.1734Zm.4136,6.694c.6642,1.5633,1.6994,2.3384,2.3964,3.3564.8914,1.3019,1.3489.8018,2.0329-.231.9953-1.5027.9389-2.2928-1.0657-2.4569A30.9262,30.9262,0,0,1,408.6532,343.8674Z"/><path class="cls-2" d="M205.8529,433.75c.0362,1.9777-.8109,2.6291-2.6748,2.0456-2.836-.888-5.6607-1.814-8.5093-2.6593-1.072-.3182-1.64-.7473-1.1057-1.9422.4026-.9.3373-2.2942,2.0275-1.5394.4539.2028,1.1623.5623,1.447-.2308a1.1,1.1,0,0,0-.7909-1.4973q-2.0979-.75-4.1885-1.5207a1.2141,1.2141,0,0,0-1.6412.5356c-.4655.8254.3084.8957.77,1.1389,1.4585.769.2882,1.694.12,2.53-.22,1.0926-.9373,1.0093-1.7779.6614-2.2227-.92-4.45-1.8321-6.7-2.68-.9189-.3463-1.3384-.8463-.7936-1.7294.4463-.7236.3094-2.2936,1.8554-1.6687,1.0041.4058,1.4445-.1564,1.9533-.7436,1.7138-1.9778,3.4459-3.941,5.1119-5.9585.8138-.9855,1.8448-1.6845,1.403-3.5023-.4473-1.84,1.0414-2.642,2.94-1.9617,2.2645.8116,4.49,1.7494,6.7913,2.4342,1.3.3868,1.5734,1.0787,1.5862,2.2983.0432,4.1051.1832,8.2094.3058,12.3135.0345,1.154-.2887,2.5106,1.49,2.7852C205.811,432.9107,205.9223,433.364,205.8529,433.75Zm-8.7422-14.3477-.413-.2373c-.9,1.1139-1.81,2.2192-2.6919,3.3471-.2482.3175-.5546.7716-.0142,1.0466.8549.4351,1.77,1.1005,2.7173.8173.8532-.255.3232-1.2282.3781-1.8684C197.1752,421.48,197.1107,420.4383,197.1107,419.4025Z"/><path class="cls-2" d="M248.2249,427.6985a3.94,3.94,0,0,0,.0068.7766c.1416,1.3544-.32,2.0073-1.79,1.74-.761-.1383-1.5534-.095-2.3273-.1751-.491-.051-.9723-.1274-1.0419-.8116-.058-.57.4406-1.45-.4588-1.6327a8.15,8.15,0,0,0-3.5535-.2329c-1.1449.3092-.5112,1.72-.7364,2.6232-.1906.765.4338.9362,1.0349.99a16.9,16.9,0,0,0,2.3286.1525c1.8206-.0911,2.2613.7041,2.0092,2.4378-.1674,1.1512-.5758,1.446-1.6118,1.3084a21.1916,21.1916,0,0,1-2.3235-.2c-1.5864-.3962-2.2889.1377-2.1526,1.7654.0673.8037-.6346,1.9311.2384,2.3453a8.274,8.274,0,0,0,3.9555.4046c.1468-.0076.3429-.2362.41-.4045.2592-.654-.1729-1.775.9708-1.8238a25.841,25.841,0,0,1,4.0213.2175c.6518.0746.5178.7267.5461,1.2062.2785,4.715.0961,4.9473-4.502,4.5524-4.3685-.3752-8.7268-.87-13.0888-1.3192-.68-.07-1.7-.0017-1.4646-1.01.2146-.9194-.5063-2.5449,1.31-2.6006,1.0594-.0325,1.0817-.6866,1.1818-1.3888.42-2.9419.8424-5.8834,1.2424-8.8279.0915-.6741.2584-1.2407-.8051-1.5687-1.5831-.4882-.4016-1.7914-.399-2.7081.003-1.09.878-.8067,1.5819-.7383,4.2264.41,8.4581.7689,12.681,1.2116C248.7872,424.3344,248.4166,423.9,248.2249,427.6985Z"/><path class="cls-2" d="M341.15,406.6259c-1.4323.3233-1.4143-1.1526-1.9124-1.925-.6144-.9525.2321-1.3445.9122-1.7543,3.93-2.3678,7.8708-4.7185,11.7692-7.1373,1.1019-.6838,1.9124-.83,2.5094.531a4.8462,4.8462,0,0,0,.4661.7061c1.9934,2.9664,1.9815,2.9472-1.1139,4.8592-.7311.4516-1.3111.8834-1.87-.1769-.32-.6073-.84-1.1069-1.5119-.52-.9149.7988-2.6985.8282-2.7252,2.2934-.0149.8178.8763,1.7116,1.4978,2.4554.2923.35.7688-.0726,1.1222-.2982a25.1771,25.1771,0,0,0,2.3184-1.4877c1.2417-1.0008,1.7525-.2748,2.4478.7271.7889,1.1368.7785,1.8292-.5433,2.429-.7018.3185-1.2963.8686-1.9906,1.2094-1.1075.5436-1.4008,1.1143-.6773,2.3014,1.4272,2.3419,3.6181,2.4171,5.2226.033a1.0566,1.0566,0,0,0,.1636-.7619c-.1673-.6215-1.2173-1.1859-.464-1.8313a22.9214,22.9214,0,0,1,3.5307-2.3111c.4322-.2489.72.2258,1.0064.5523,3.25,3.7039,3.2233,3.9765-.9271,6.4943q-5.5238,3.351-11.0816,6.6458c-.5837.3452-1.3731,1.278-1.9019.1029-.3812-.8471-1.9742-1.733-.3917-2.8354.8032-.56.4317-1.0756.1349-1.6171-1.4591-2.663-2.9377-5.3154-4.41-7.971C342.4192,406.7769,342.1487,406.1366,341.15,406.6259Z"/><path class="cls-2" d="M212.7629,434.6436c.9268.3613,1.3543.0239,1.5735-.9876.6437-2.97,1.3672-5.9229,2.0989-8.8728.2232-.9.1441-1.44-.919-1.6921-1.1235-.267-1.43.3161-1.511,1.1753-.2473,2.6283-1.9058,1.452-3.2381,1.2556-1.8453-.272-1.2784-1.4294-.9919-2.5285,1.25-4.7941,1.24-4.7738,6.1425-3.66,4.0651.9237,8.131,1.8534,12.2236,2.64,1.2629.2428,1.7372.6672,1.4522,1.9277a19.201,19.201,0,0,0-.4414,2.72c-.243,3.1-.23,2.5765-3.0568,2.2959-1.4141-.14-1.8382-.7009-1.4263-2.07.2314-.7693.527-1.6442-.8163-1.9434-1.35-.3006-1.3714.5778-1.5392,1.4075-.5738,2.8383-1.1559,5.6752-1.6941,8.52-.1207.6383-.4806,1.6039.6238,1.6591,2.451.1223,1.1893,1.6588,1.1164,2.7206-.1168,1.7023-1.3146.867-2.04.7325-2.71-.5024-5.3953-1.1364-8.0984-1.6787-.9638-.1934-1.525-.4588-1.2469-1.6665C211.3966,434.7657,211.4638,434.5747,212.7629,434.6436Z"/><path class="cls-2" d="M306.0356,422.2528c.0685.7708.9009,1.6809.1829,2.192a9.5407,9.5407,0,0,1-2.9732,1.0006c-.5823.1623-.95-.1147-1.0513-.7209a2.8546,2.8546,0,0,0-.0879-.4145c-1.7418-5.3437-1.7395-5.3356,3.5609-7.0419,3.7692-1.2133,7.55-2.3972,11.285-3.708,1.3916-.4883,2.2655-.4868,2.629,1.1742a8.2582,8.2582,0,0,0,.8971,2.3736c1.0988,1.88.5816,2.7923-1.4812,3.4161-1.3325.4029-1.9352.2615-2.327-1.0606-.2209-.7452-.2971-1.7421-1.6553-1.2739-1.4369.4952-.8709,1.3562-.5892,2.1943q1.3521,4.023,2.7408,8.0338c.2515.73.4026,1.5755,1.5645,1.038,1.81-.8374,1.6857.8213,2.1112,1.7229.6143,1.3013-.3443,1.5514-1.2582,1.84-2.5639.808-5.1216,1.6359-7.6863,2.4414-.86.27-1.8535.7972-2.1154-.7015-.169-.9666-1.2851-2.2188.7255-2.612.83-.1623.8923-.7087.6671-1.4419q-1.4015-4.5634-2.7326-9.1481c-.2351-.8123-.6761-.9245-1.429-.7552C306.1517,420.9942,305.7444,421.38,306.0356,422.2528Z"/><path class="cls-2" d="M372.7786,391.8336c-.1437,2.348-1.95,4.182-4.01,5.8834-.567.4681-1.9114.877-.956,1.8621.7746.7987.5749,3.1215,2.8876,2.0169,1.2617-.6027,1.43,1.0179,2.0924,1.617.7052.638.166,1.1278-.3762,1.5256-2.1065,1.5452-4.225,3.0741-6.3271,4.6254-.5223.3855-1.0583.5866-1.3988-.0981-.4061-.8167-1.8409-1.5193-1.0114-2.4755.95-1.0954.2426-1.62-.2494-2.3338-1.322-1.92-2.6083-3.8671-4.0116-5.726-.7119-.9431-.9754-2.4982-2.9665-1.941-.7172.2007-1.3161-1.3211-1.7249-2.1916-.3324-.7078.4747-.9038.8949-1.2139,2.6156-1.93,5.1885-3.9246,7.8791-5.7447,3.4161-2.311,6.38-1.9224,8.3931.8871A5.0991,5.0991,0,0,1,372.7786,391.8336Zm-7.3475-.6932c-1.0175.2612-2.1379.5339-2.5377,1.7664-.1665.5134,2.2333,3.5017,2.6455,3.3433a3.0737,3.0737,0,0,0,2.27-2.76C367.84,392.0789,366.8623,391.3829,365.4311,391.14Z"/><path class="cls-2" d="M280.01,422.905c.6647.08,1.7309-.4958,1.8694.6613.1116.933,1.2165,2.2046-.5242,2.8559-.6518.2438-.4413.82-.3817,1.2714.407,3.0826.8651,6.1586,1.2607,9.2425.269,2.0969,1.6972.8089,2.6083.8954.96.0911,1.6408-.2107,1.3633-1.482-.16-.7338-.8012-1.8586.3437-2.2109a8.5041,8.5041,0,0,1,4.1594-.5459c.6325.1288.4328.9692.5439,1.4913,1.0792,5.0752,1.0743,5.0967-4.0343,5.881q-5.4448.836-10.9068,1.5566c-.6152.0821-1.61.5-1.6767-.61-.0565-.9391-.8695-2.1957.4906-2.8047.7973-.3569.8178-.8287.75-1.4953q-.4733-4.6407-.9312-9.2829c-.0412-.411.0172-.9219-.5426-1.0019-1.9906-.2845-1.3689-1.9111-1.3374-2.9678.0353-1.1857,1.309-.7642,2.0646-.8818C276.7342,423.2271,278.3573,423.0915,280.01,422.905Z"/><path class="cls-2" d="M330.9,411.7876c-.87.4257-1.6335.7484-2.2767-.6386-.6789-1.4643-.6408-2.2018,1.0115-2.8588,2.2288-.8863,4.3481-2.0554,6.4867-3.1569.7735-.3984,1.4936-.7633,1.837.369.257.8471,1.8018,1.742.1686,2.6274-1.2658.6862-.7456,1.4233-.3178,2.26,1.8032,3.5265,3.663,7.0263,5.3752,10.5967a7.547,7.547,0,0,1-5.5909,10.8319c-1.3813.2575-1.4215-.8563-1.8105-1.6123-.3747-.7281-.6472-1.3742.4989-1.8249,1.8864-.7417,1.9753-2.3,1.2715-3.8808-1.7825-4.0041-3.662-7.9652-5.514-11.9382C331.8378,412.13,331.6538,411.6094,330.9,411.7876Z"/><path class="cls-2" d="M295.0555,439.7311c-1.4275.1986-1.5189-.43-1.5867-.9819-.1016-.8275-.9991-1.93.2495-2.4069,1.2173-.4646.9511-1.1909.7879-2.01-.511-2.5649-1.016-5.1313-1.5675-7.6876-.2073-.9608-.089-2.02-1.7544-2.1015-1.0682-.0523-.8153-1.5978-.9919-2.51-.1836-.948.6942-.9288,1.257-1.0636,2.13-.51,4.2765-.9525,6.4089-1.4537.737-.1732,1.5133-.3733,1.6171.6647.0887.8871,1.2307,2.0466-.0125,2.6266-1.0806.5041-.9081,1.1131-.7388,1.8341.6786,2.8891,1.407,5.7665,2.1171,8.6482.1307.53.1224,1.29.9183,1.1576,2.2378-.3716,1.7225,1.5638,1.9142,2.5163.2852,1.4171-1.2443,1.0288-1.98,1.2293C299.3114,438.8423,296.8817,439.3195,295.0555,439.7311Z"/><path class="cls-2" d="M127.7737,137.8419q-4.9323-4.3527-9.9107-8.6531c-3.658-3.1772-3.6286-3.1456-6.6609.68-.7233.9125-.6167,1.3833.2416,2.0486,1.954,1.5146,3.8442,3.1114,5.761,4.674,1.8084,1.4743,3.5807,2.996,5.437,4.4072,1.767,1.3433.8413,2.38-.079,3.7108-1.1,1.5907-1.8187.5808-2.693-.0879-1.6293-1.2461-3.2188-2.5515-4.9094-3.7088-2.2269-1.5243-3.8072-1.3178-5.6426.6a14.3475,14.3475,0,0,0-1.6332,1.9507c-4.2169,6.37-8.3073,12.8174-12.1371,19.4312-.6519,1.1258-.42,1.5747.6033,2.102,2.7035,1.3936,5.347,2.9051,8.0688,4.26,1.3088.6517,1.3968,1.2429.8007,2.5941-.8153,1.8482-1.6824,2.0907-3.3061,1.0584-1.1885-.7557-2.5232-1.2783-3.7776-1.934-3.9887-2.0845-5.8358-1.5541-7.7639,2.5462-1.5634,3.3247-2.9862,6.723-4.3109,10.1507-1.56,4.036-2.1713,2.9673,2.0663,4.6609,1.1468.4583,1.7554.3089,2.1907-.9556.7126-2.07,1.6079-4.0779,2.435-6.1084,2.1786-5.3482,2.1594-5.3039,7.3475-2.79,1.1739.5688,1.3747,1.0567.8655,2.24-1.5373,3.573-2.9556,7.1975-4.4044,10.8082-.2023.5041-.7587,1.1484-.29,1.5644a9.2391,9.2391,0,0,0,4.0525,1.64c1.0328.2629,1.0005-.998,1.27-1.6357,3.03-7.16,5.7607-14.4616,9.7429-21.1774a272.9967,272.9967,0,0,1,17.8277-26.8325,5.2036,5.2036,0,0,0,1.3758-3.26C130.25,140.0068,128.9947,138.9194,127.7737,137.8419Zm-18.5353,26.2743c-.4882.8775-1.3385.5606-2.0664.1959-.44-.2207-.8634-.4764-1.292-.72-3.7642-2.143-3.8809-2.8777-1.05-6.3076a1.36,1.36,0,0,1,1.0837-.6376c1.6648,1.1342,3.892,1.7633,4.9551,3.4466C111.777,161.5313,109.9571,162.8244,109.2384,164.1162Zm8.4628-12.9307c-.8378,1.2262-1.4758,2.8129-2.6415,3.5341-1.4428.8926-2.4022-.9638-3.5215-1.6429-2.8428-1.725-2.837-3.45-.1324-5.5279a5.55,5.55,0,0,1,.9411-.506c.8129-.04,5.291,2.792,5.4584,3.3742A1.0272,1.0272,0,0,1,117.7012,151.1856Z"/><path class="cls-2" d="M425.4968,212.76c5.3889-1.1795,10.746-2.5054,16.1383-3.6685,1.2929-.2788,1.5362-.6807,1.2268-1.9777-1.0937-4.5838-1.0287-4.58-5.559-3.3577-3.6879.9946-7.4017,1.8948-11.08,2.9213-1.9143.5341-2.2229-.6791-2.7267-2.0354-.6137-1.6526.5-1.7134,1.52-2.0239,2.2306-.6794,4.4723-1.3337,6.666-2.1193,1.5508-.5553,2.364-1.74,2.2089-4.0858.0215.2085.0246-.2246-.0725-.6339a89.4362,89.4362,0,0,0-3.7357-11.0466c-1.7326-4.5605-3.4462-5.2283-7.9834-3.2544-1.3618.5925-2.6963,1.2555-4.0829,1.7814-2.304.8737-2.4159-1.1939-3.1729-2.4275-.8772-1.4294.1239-1.82,1.1437-2.27,1.4871-.6558,2.9724-1.3181,4.4372-2.0218,4.062-1.9513,4.6943-3.5476,2.715-7.5418-1.6629-3.3555-3.4334-6.6666-5.331-9.8946-2.0919-3.5585-.8984-3.3388-4.84-1.1585-1.1216.62-1.2931,1.2312-.6107,2.3372,1.1876,1.9247,2.2488,3.9284,3.34,5.9117,2.672,4.8573,2.6163,4.8544-2.3824,7.2344-1.4385.6849-1.92.2509-2.5629-.9683-1.7466-3.3142-3.7038-6.5179-5.429-9.8425-.7146-1.3771-1.413-1.5852-2.594-.69a8.1664,8.1664,0,0,1-1.437.9014c-1.1466.5385-1.3366,1.1975-.6857,2.3479a239.441,239.441,0,0,1,11.24,21.87c.4952,1.1324,1.1,2.1586,2.4719,2.3821.7067.1151,1.0529.3838.5616,1.117-.9924,1.4808-.5132,2.9688-.0294,4.4772,1.4906,4.6468,2.985,9.2929,4.4131,13.9591C420.4062,212.7164,421.692,213.5928,425.4968,212.76Zm-4.4135-15.8741c-.7092-2.068-1.4479-4.1258-2.152-6.1955a1.3368,1.3368,0,0,1,.5006-1.7007c1.579-.7609,3.233-1.3664,4.6464-1.9472a1.7269,1.7269,0,0,1,1.6793,1.1225c.7047,1.92,1.4164,3.8374,2.0885,5.7686a1.3111,1.3111,0,0,1-.6558,1.8035c-1.7036.6642-3.4492,1.2238-5.1914,1.783C421.5143,197.6758,421.2414,197.3469,421.0833,196.886Z"/><path class="cls-2" d="M308.1707,73.5113c-1.4745-.4672-2.1418-.2429-2.5078,1.3347-.6548,2.8229-1.4965,5.6024-2.2595,8.4a1.6876,1.6876,0,0,1-2.3493,1.4038c-2.4663-.6251-4.9525-1.1867-7.4524-1.6587-1.7986-.34-2.3495-1.26-1.9307-3.0054.462-1.9253.7883-3.8831,1.1792-5.8256.8648-4.297.8663-4.2966-3.5156-4.9043-.14-.0194-.2811-.0391-.4187-.0712-.9974-.2337-1.4028.2111-1.5388,1.1816-.2947,2.1014-.6816,4.19-1.0069,6.2869-.7543,4.8628-.7407,4.8134-5.6183,4.055-1.5613-.2427-2.0481-.973-1.85-2.44.2847-2.104.5321-4.2137.7561-6.3251.4593-4.3278.446-4.2846-4.0314-4.5407-1.19-.0681-1.6709.232-1.731,1.4428-.0912,1.8363-.3167,3.6659-.4847,5.4983-.534,5.8234-.5294,5.7858-6.5441,5.0746-1.2785-.1512-1.6514-.5881-1.5634-1.86.2151-3.1064.2646-6.2238.4236-9.3346.0463-.9062-.0753-1.5189-1.181-1.53a148.315,148.315,0,0,0-15.071.1285c-3.549.3251-4.4776,1.5644-4.3432,5.1907.0969,2.616.2854,5.2312.5222,7.8385.3221,3.5463,1.5879,4.6675,5.2223,4.6458,7.5026-.0446,15.0035-.0664,22.4892.5513,1.3021.1075,2.5633.1094,3.5019-1.0226.4714-.5684.8067-.4929,1.3358.066,2.6551,2.8047,8.6467,3.4244,11.8644,1.2045a4.13,4.13,0,0,0,2.8877,2.8418c3.2983.8106,6.5906,1.6577,9.9156,2.3434,2.9347.6053,4.2333-.1412,5.2011-2.9561,1.0112-2.9415,1.86-5.9391,2.7727-8.9142C312.0542,74.67,312.0306,74.7343,308.1707,73.5113ZM259.61,75.6019c-.0183,3.6185-.0183,3.6185-3.74,3.6018-4.5533-.02-4.5533-.02-4.6538-3.9687-.087-3.4182-.087-3.4183,3.2356-3.4294.4243-.0014.8485,0,1.2727,0C259.6291,71.7526,259.6291,71.7526,259.61,75.6019Z"/><path class="cls-2" d="M389.0806,148.2743c2.318,2.64,3.8319,2.8762,6.7746.85,2.3871-1.6435,4.6868-3.4143,7.0182-5.1382,3.6484-2.6979,3.6143-2.6752.7158-6.1582-.7729-.9287-1.3142-.9788-2.2294-.22-2.2859,1.8944-4.6661,3.6747-6.9715,5.5465-1.9117,1.5522-2.6824-.0641-3.7129-1.2038-1.0325-1.142-1.5786-2.1817-.0927-3.3842,1.5946-1.2906,3.1527-2.6272,4.7068-3.9668,3.3789-2.9127,3.3181-2.8706.4224-6.2186-.9908-1.1455-1.576-.9612-2.5266-.0465-2.0368,1.96-4.2144,3.7733-6.2493,5.7349-1.8607,1.7939-2.7787.22-3.966-.8838-1.2482-1.16-1.3811-2.1785-.0791-3.3732,1.5622-1.4335,3.0706-2.9261,4.59-4.4058,2.8331-2.7587,2.7564-2.6954.0534-5.6288-1.1866-1.2877-1.8715-1.4642-3.0861-.0382-1.8322,2.1509-3.8982,4.1032-5.8735,6.1314-1.3059,1.3408-2.33.6258-3.4269-.3915-1.0593-.9829-1.3249-1.6588-.1005-2.8514,2.2242-2.1664,4.1919-4.5939,6.3211-6.8612.5918-.63.8434-1.0693.0684-1.7128-3.97-3.2968-7.7286-6.8637-11.9943-9.7846-2.668-1.8267-4.32-1.559-6.2405.8794-1.8356,2.33-3.5836,4.739-5.2219,7.2115-1.6589,2.5035-1.2952,4.39,1.07,6.296,5.2249,4.2111,10.3626,8.521,15.2288,13.1465a3.4326,3.4326,0,0,0,3.01,1.2642c1.3021-.2431,1.281.3424,1.2651,1.3859-.0388,2.5577,3.9483,6.7952,6.5033,6.873,1.1668.0356,1.3686.3724,1.0339,1.2933C385.9758,144.4876,386.3185,145.129,389.0806,148.2743Zm-16.8243-31.256c-2.8012,3.2481-2.8032,3.2464-6.1763.4795-.5452-.4472-1.1048-.878-1.6337-1.3438a1.6237,1.6237,0,0,1-.2627-2.5569c4.2529-5.3251,2.6183-4.7115,7.4107-1.0977a6.37,6.37,0,0,1,2.4087,2.4293C373.4213,115.6257,372.8492,116.3308,372.2563,117.0183Z"/><path class="cls-2" d="M232.8324,73.7195c-.6528-3.9466-1.9447-4.9912-5.9153-4.5275a76.7044,76.7044,0,0,0-11.6192,2.3553c-3.4055.9464-4.2568,2.6091-3.4065,6.0741.4381,1.7854.97,3.55,1.3587,5.345.5214,2.4063-1.5329,2.2123-2.8735,2.7659-1.62.669-1.7089-.515-2.0028-1.5369-.5084-1.7672-1.0178-3.5351-1.5834-5.2844-1.0481-3.2422-2.4852-4.1872-5.716-3.3212-2.9269.7845-5.7684,1.8952-8.6321,2.9061-6.13,2.1638-6.85,3.9445-3.9852,9.7372a11.6837,11.6837,0,0,0,1.2664,2.6408c.681.593,2.6137.9113.4666,2.1251l-.6361.3765c-1.3922.5791-2.8161,1.0933-4.1677,1.7552a1.8554,1.8554,0,0,1-2.8975-1.0117c-.861-1.8575-1.7639-3.6955-2.6449-5.5437-2.0521-4.3045-2.0317-4.272-6.2751-1.767-.9.5311-1.0142.9675-.536,1.8271.9619,1.7294,1.8439,3.5031,2.7685,5.2535,2.7989,5.2993,2.56,4.3935-1.7731,7.0285a1.4346,1.4346,0,0,0-.2769.3107c-1.5423.6185-2.4442.005-3.2051-1.3956-1.7835-3.2825-3.6865-6.5-5.5629-9.7319-2.2-3.7886-2.1731-3.72-6.0215-1.462-1.3157.7719-1.3884,1.4113-.6224,2.61,2.8072,4.3927,5.5412,8.8322,8.3,13.2556,2.5878,4.1488,5.1661,4.514,8.8933,1.2558,2.1958-.6119,4.0138-1.9785,6.0032-3.0033,1.1636-.5995,2.1824-1.2886,2.3179-2.77.1034-1.13.77-.5833,1.3626-.4355,1.8621.4649,3.6183.484,4.7512-1.46.3415-.3092,2.3252-.4226,3.3559-.7775,7.6176-2.623,15.1173-5.5884,22.9024-7.72,1.0981-.3006,2.2373-.7053,2.597-1.9466.362-1.2492.8526-.9645,1.5881-.3365a3.454,3.454,0,0,0,3.0153.63c2.2914-.4291,4.594-.8181,6.86-1.3563,2.85-.6768,3.8985-2.1772,3.5873-5.0828C233.5955,78.8991,233.2593,76.3,232.8324,73.7195ZM202.1588,88.3067c-.7279.2743-1.4566.5467-2.1906.8041-4.5767,1.6051-5.3686,1.1142-6.3372-3.8033a1.5721,1.5721,0,0,1,1.02-2.031c.7885-.3132,1.5866-.6032,2.3849-.891,4.01-1.446,6.0944.0706,6.09,4.5687A1.4308,1.4308,0,0,1,202.1588,88.3067Zm24.6006-6.4145c-.8879.2308-1.7848.43-2.6832.6173-5.2871,1.102-4.647,1.6627-5.9768-4.4455a1.6656,1.6656,0,0,1,1.4306-2.1882c.83-.1786,1.6644-.3338,2.4972-.4973,4.9465-.9714,5.8366-.2071,5.7775,5.0288C227.9781,81.2073,227.5438,81.6883,226.7594,81.8922Z"/><path class="cls-2" d="M343.38,81.3712c-1.1619-.597-1.6229-.5615-2.2128.6959-1.9818,4.2241-4.1544,8.3584-6.1662,12.5689-.7708,1.6133-1.6046,1.9353-3.3271,1.197-1.8812-.8065-1.5259-1.7093-.8089-3.0546.7961-1.4937,1.4476-3.0665,2.121-4.6227a7.2537,7.2537,0,0,0,.7361-2.8694c-.0561-2.1327-1.6218-3.0789-3.25-3.7642-3.5838-1.5081-7.2227-2.8893-10.8646-4.2541-3.5117-1.316-3.4662-1.2576-4.6662,2.1809-.4342,1.2443-.19,1.7369,1.0506,2.1326,2.2213.7085,4.3865,1.5939,6.5721,2.4134,4.9181,1.8441,4.8552,1.8212,2.9027,6.6977-.6218,1.5531-1.262,1.8367-2.8188,1.1972-3.4659-1.4236-7.03-2.607-10.5353-3.9361-1.1837-.4488-2.0344-.5-2.2621,1.0526a5.7385,5.7385,0,0,1-.5249,1.6116c-.6431,1.3434-.2042,1.9719,1.182,2.4559,7.4846,2.6126,14.7934,5.666,22.0234,8.9171,3.0408,1.3673,4.4265.9155,6.1187-2.0709,2.3349-4.1206,4.5333-8.3192,6.7642-12.4983C347.5383,83.4411,347.4965,83.4862,343.38,81.3712Z"/><path class="cls-2" d="M97.7653,196.5079c-2.3085-1.0124-3.8625-.6723-5.4633,1.2616-1.7532,2.1179-3.79,4.0042-5.7454,5.9489-.5177.5148-.8708,1.31-1.7857,1.3618-.5617-.8068-.0195-1.5209.1778-2.2124.756-2.6505,1.4946-5.312,2.4146-7.9074.5125-1.4461.1011-1.98-1.2706-2.4264-3.1476-1.0232-3.1318-1.0911-4.1486,2.1364-.6372,2.0226-1.3035,4.0381-1.8666,6.0816a33.4119,33.4119,0,0,0-1.5427,6.3769c-.1748,2.3749.6008,3.5252,2.82,4.3557,2.427.9084,4.1264-.5282,5.7038-1.8978a48.774,48.774,0,0,0,3.9511-4.296l.64.4377c-.8789,3.6746-1.7266,7.3572-2.6555,11.0192-.2831,1.1158-1.3017.95-2.125.8137-2.0913-.347-4.1626-.8162-6.2556-1.1513-5.0861-.8146-3.761-1.7573-4.972,3.5439-.326,1.4268.2473,1.849,1.5776,2.0281,3.5028.4714,6.9886,1.0707,10.48,1.6248,3.9052.62,5.1434-.13,6.0918-3.9626,1.6817-6.7955,3.3642-13.5922,5.4491-20.2749C99.77,197.6715,99.3006,197.1813,97.7653,196.5079Z"/><path class="cls-2" d="M163.8208,107.1874c-1.914,1.1385-2.6595-.38-3.7175-1.247-1.4765-1.21-2.9076-2.4753-4.3729-3.6993a5.42,5.42,0,0,0-3.91-1.2915,8.3749,8.3749,0,0,0-4.1831,1.9886c-2.3625,1.7953-4.6828,3.6476-6.9885,5.5158-3.0075,2.4368-2.9522,2.4183-.5431,5.28.7887.9372,1.3365.9534,2.2213.1941,1.6077-1.38,3.2929-2.669,4.95-3.9911,4.6771-3.7321,4.6434-3.6916,9.08.1928,1.1324.9915.8742,1.4321-.1653,2.1815-1.9476,1.404-3.8184,2.9161-5.7,4.41-5.7644,4.5776-5.8439,5.5269-.9807,11.0607a6.39,6.39,0,0,0,10.6612-1.5135c.06-.1248.1888-.29.1506-.377a9.8143,9.8143,0,0,0-2.6595-3.52c-.826-.6966-1.4354.509-2.0591.96-.8918.6452-1.7063,1.09-2.5735.0492-.8871-1.0652-.2674-1.7344.5906-2.4491,3.481-2.9,7.2144-5.4531,10.9121-8.0567,2.4322-1.7126,2.458-1.7308.7376-4.2315C164.8759,108.0715,164.6176,106.7135,163.8208,107.1874Z"/><path class="cls-2" d="M189.9676,98.09c.0112.0092.0283.01.0259.0013-.0073-.0036-.0141-.0039-.0214-.0076Z"/><path class="cls-2" d="M409.9771,149.6576c-.7627-1.1762-1.3189-1.3049-2.4581-.505-4.1008,2.8795-8.2835,5.642-12.3962,8.5048-1.3111.9128-2.4184,1.2165-3.2948-.4426-.5759-1.09-1.1994-.859-2.0121-.2544-3.5713,2.6569-3.322,1.6271-.9765,5.1411a12.5087,12.5087,0,0,0,1.4989,1.7761,3.2986,3.2986,0,0,0,2.2906.9849,7.4688,7.4688,0,0,0,3.3375-1.2152q6.35-4.0248,12.7053-8.04C412.3847,153.2537,412.3288,153.2843,409.9771,149.6576Z"/><path class="cls-2" d="M444.5746,214.82c-.2526-1.5755-.8747-1.7592-2.2566-1.4579-5.7261,1.2482-11.4693,2.4187-17.21,3.5995-4.3016.8849-4.3106.91-3.0757,5.0837.22.7418.52,1.1275.8788,1.054l1.2743-.2167q8.3548-1.4219,16.7094-2.8458C445.3663,219.2679,445.2884,219.2716,444.5746,214.82Z"/><path class="cls-2" d="M355.7772,88.2121a30.5446,30.5446,0,0,1-2.7167-1.6432c-1.1906-.8818-1.8351-.704-2.5752.649-2.8438,5.1993-5.83,10.3207-8.7395,15.4844-1.8449,3.2742-1.8108,3.2595,1.34,5.2151,1.0384.6445,1.67.8893,2.4679-.4664,3.3991-5.7774,6.9385-11.4723,10.423-17.2.2173-.3571.4038-.733.5191-.9438C356.5735,88.5667,356.1378,88.4248,355.7772,88.2121Z"/><path class="cls-2" d="M122.8461,119.3806c-.344-.3354-.7284-.6294-1.2243-1.0543-.9722,1.0173-1.8421,2.03-2.82,2.9243-1.1582,1.06-1.32,1.8295.0209,3.0085,4.397,3.8675,8.6615,7.8853,12.9934,11.8273,2.7915,2.54,2.7623,2.4841,5.3933-.1578.9441-.9479,1.0971-1.5217.0435-2.5287C132.4092,128.77,127.6444,124.058,122.8461,119.3806Z"/><path class="cls-2" d="M260,63.8706c.7723,0,1.5461.031,2.3166-.0068,1.34-.0657,1.08-1.171,1.007-1.8948-.0926-.9158.8288-2.3654-.743-2.6565a25.7338,25.7338,0,0,0-4.6222-.1077c-.4837,0-.689.3124-.8172.7823C256.4064,62.681,257.2275,63.8074,260,63.8706Z"/><path class="cls-2" d="M372.7335,103.2472a4.5675,4.5675,0,0,0,.845.63c.7164.3235,1.1993,1.6413,2.0484,1.0171a14.6683,14.6683,0,0,0,2.35-2.7329c.0906-.8782-4.2865-4.2424-4.9241-3.9864a1.4847,1.4847,0,0,0-.3227.2659C370.5339,100.23,370.5344,101.5327,372.7335,103.2472Z"/><path class="cls-2" d="M292.9748,67.3029c2.1452-.5311,2.0017-2.63,1.7421-3.5387-.6853-2.3976-3.2882-1.55-4.9711-1.7621-2.0846-.2629-1.6679,2.2069-1.4785,3.1487C288.796,67.78,291.54,66.2037,292.9748,67.3029Z"/><path class="cls-2" d="M249.1821,63.9018a20.2861,20.2861,0,0,0,4.6268-.0544c.5273-.0166.6471-.3787.7482-.8363.6478-2.9323-.0492-3.8266-2.9374-3.6149-.7733,0-1.5479.0308-2.3192-.0077-.994-.05-1.3067.54-1.0782,1.3213C248.54,61.796,247.3984,63.533,249.1821,63.9018Z"/><path class="cls-2" d="M381.0813,110.0716c.4676.3732.9583,1.0759,1.5794.3171.7759-.9477,2.0171-1.5761,2.1781-2.9576a22.8311,22.8311,0,0,0-4.3474-3.71,3.0321,3.0321,0,0,0-.507.1807c-2.1535,1.1622-2.3728,3.22-.5165,4.8076C380.0028,109.1667,380.5313,109.6326,381.0813,110.0716Z"/><path class="cls-2" d="M192.1007,75.67a28.2324,28.2324,0,0,1,3.6826-1.2942c1.6248-.3363,1.6126-1.1166,1.1421-2.4322-.9242-2.5845-.8621-2.6063-3.4453-1.6473-.7283.27-1.4609.53-2.185.8106-.5472.2124-1.4292.2356-.9765,1.1941C190.8555,73.438,190.7646,74.9443,192.1007,75.67Z"/><path class="cls-2" d="M177.3251,81.9669a22.8523,22.8523,0,0,1,2.4889-1.1748c.667-.2949,1.1189-.7059.6956-1.4609-.5833-1.0406-.6546-2.4386-1.8983-3.0386a29.3771,29.3771,0,0,1-3.0049,1.3709c-1.9473.64-2.4223,1.4922-1.3562,3.5C175.1657,82.8874,175.9842,82.7657,177.3251,81.9669Z"/><path class="cls-2" d="M167.8426,86.6283c.7355.2017,4.801-2.4975,4.8007-2.9923,0-.7673-1.6663-3.348-2.17-3.3618-.8477-.0234-5.2055,2.7062-4.9577,3.1081C166.2157,84.5183,166.2765,86.1987,167.8426,86.6283Z"/><path class="cls-2" d="M301.9212,92.976c-2.1156.3216-1.9022,2.1259-1.9354,3.2375-.0764,2.5554,2.4438,1.9294,3.7436,2.1562,2.0253.3534,1.8447-1.9849,1.8673-3.0185C305.6507,92.8809,302.9367,94.1948,301.9212,92.976Z"/><path class="cls-2" d="M294.6031,91.3478c-2.4986-.6273-1.8488,1.7641-1.9927,2.7663-.4134,2.8774,2.29,1.87,3.5612,2.1848,2.4973.6178,1.3168-2.0267,2.3743-3.088C297.7833,91.3427,295.93,91.6809,294.6031,91.3478Z"/><path class="cls-2" d="M270.3946,87.6476c-1.2762-.4232-2.4108-.36-2.4107,1.6743,0,2.6638-.1648,2.6638,2.7345,2.9077,2.5391.2136,2.5289.2128,2.7828-2.8218C273.7334,86.6323,271.4978,88.0135,270.3946,87.6476Z"/><path class="cls-2" d="M277.5992,88.3035c-2.7313-.2646-1.9168,1.8311-1.9809,2.8818-.191,3.13,2.54,1.71,3.8407,1.9156,2.3865.3782,1.5162-2.0208,1.5478-3.03C281.0924,87.3374,278.4454,89.2861,277.5992,88.3035Z"/><path class="cls-2" d="M297.15,386.3728a6.7535,6.7535,0,0,0-.8165-.7663,6.4586,6.4586,0,0,0-.5655.68c.2864.2364.5441.4656.8378.7449A3.8111,3.8111,0,0,0,297.15,386.3728Z"/><path class="cls-2" d="M295.7683,386.4659a6.7336,6.7336,0,0,0-.8165-.7663,6.49,6.49,0,0,0-.5657.68c.2864.2364.5441.4656.8378.7449A3.8115,3.8115,0,0,0,295.7683,386.4659Z"/><path class="cls-2" d="M299.88,384.2818a6.4739,6.4739,0,0,0-.8594-.7663c-.1933.2219-.3868.4726-.58.73.2864.2435.5657.4726.8451.7377A2.9007,2.9007,0,0,0,299.88,384.2818Z"/><path class="cls-2" d="M300.6958,387.2106c-.3223-.8664-.7876-1.4178-1.3676-1.4178a1.35,1.35,0,0,0-.9239.48,2.0583,2.0583,0,0,0-.5369,1.4108,1.2969,1.2969,0,0,0,.1074.5155c.25.5514.8877.7735,1.7185.7735a7.6478,7.6478,0,0,0,.8092-.0286.5868.5868,0,0,1,.0143.1574c0,.1862-.3868.4583-.8451.5943a5.8172,5.8172,0,0,1-1.5609.1433h-.7314a1.3351,1.3351,0,0,1-.888-.2864.7112.7112,0,0,1-.2362-.5943,3.8444,3.8444,0,0,1,.1574-.8308l-.0429-.05-.4942.3582-.2076.7733c-.1074.4084-.68.63-1.2316.63h-.5745a3.7466,3.7466,0,0,1-1.7185-.3868v-.0286l1.3822-1.1887.1717-.8092a5.3733,5.3733,0,0,0-2.0481-.3293,9.0133,9.0133,0,0,0-1.9191.2362l-.3366.0572-.308.7806.0429.0645a1.2537,1.2537,0,0,1,.3509-.0858c.1433,0,.308.186.4872.3509a10.3751,10.3751,0,0,0,.8521.8378A3.63,3.63,0,0,0,288.82,392.23c0,1.8475,1.468,2.6713,3.2081,2.6713a2.7189,2.7189,0,0,0,1.2246-.2078,11.3044,11.3044,0,0,0,1.2032-.8019l-.05-.129a7.5909,7.5909,0,0,1-1.8262.2078c-1.955,0-3.2724-.8237-3.2724-2.0267,0-.7733.8378-1.4608,2.1123-2.1053h.0432a4.2967,4.2967,0,0,0,2.4775.9239h.3366v-.0074h.1375a1.541,1.541,0,0,0,1.4251-.73h.0286a1.4406,1.4406,0,0,0,1.4751.73h.7457a3.3031,3.3031,0,0,0,2.5566-.709,1.6981,1.6981,0,0,0,.3509-1.1315A4.6806,4.6806,0,0,0,300.6958,387.2106Zm-2.3844.1576a.8428.8428,0,0,1,.8591-.6375c.58,0,1.0742.709,1.2175,1.3892C299.2566,388.1272,298.3114,387.9483,298.3114,387.3682Zm-6.7983,1.6972c-.2648-.2148-.4653-.4011-.7161-.6159-.1576-.1433-.4011-.3366-.53-.4513v-.0356a5.8058,5.8058,0,0,1,1.3749-.1433,6.5087,6.5087,0,0,1,1.3676.1646v.0432a8.9788,8.9788,0,0,1-1.468,1.0454Z"/><path class="cls-2" d="M265.5628,384.3677a6.7535,6.7535,0,0,0-.8165-.7663,6.4943,6.4943,0,0,0-.5657.68c.2866.2362.5444.4653.8381.7447A3.8226,3.8226,0,0,0,265.5628,384.3677Z"/><path class="cls-2" d="M264.1806,384.4608a6.7333,6.7333,0,0,0-.8162-.7663,6.4943,6.4943,0,0,0-.5657.68c.2864.2362.5441.4653.8378.7447A3.8111,3.8111,0,0,0,264.1806,384.4608Z"/><path class="cls-2" d="M264.0732,386l-.1.0359a4.8555,4.8555,0,0,0-.0788.7161,4.9539,4.9539,0,0,0-.7088.9093,2.9814,2.9814,0,0,0-.437,1.3749,1.7845,1.7845,0,0,0,.7377,1.59,1.5264,1.5264,0,0,0,.8594.2148,1.9726,1.9726,0,0,0,1.4823-.6586,2.4554,2.4554,0,0,0,.3865-1.332,2.391,2.391,0,0,0-.1145-.8022C265.9064,387.2751,264.5172,386.4157,264.0732,386Zm1.4324,3.5018a1.8689,1.8689,0,0,1-1.1172.3868,1.1325,1.1325,0,0,1-1.196-.9668,2.31,2.31,0,0,1,1.0885-1.6041,4.2032,4.2032,0,0,1,1.1528.9309,1.3577,1.3577,0,0,1,.3868.7806A.6051.6051,0,0,1,265.5056,389.5021Z"/><path class="cls-2" d="M268.715,385.7426l-.0572.0073a2.2961,2.2961,0,0,0-.3652.8162c0,.0861.0572.179.2292.265a5.45,5.45,0,0,1,1.4608,1.0813,2.2653,2.2653,0,0,1,.6732,1.3606c0,.0572-.05.1217-.1433.1719a3.0614,3.0614,0,0,1-1.5539.4653,1.0174,1.0174,0,0,1-1.1744-1.1026h-.2794a3.1846,3.1846,0,0,0-.0359.5226c0,1.06.5587,1.511,1.3749,1.511a4.0224,4.0224,0,0,0,1.9908-.6659,2.8835,2.8835,0,0,0,.3007-1.2532,2.7265,2.7265,0,0,0-.7088-1.6972A7.0419,7.0419,0,0,0,268.715,385.7426Z"/><path class="cls-2" d="M285.3746,387.6689a5.4655,5.4655,0,0,0-.6445.6445,6.4894,6.4894,0,0,1,.179,1.16.3364.3364,0,0,1-.3795.3223.7728.7728,0,0,1-.7447-.8235,3.1594,3.1594,0,0,1,.0931-.7018l-.0429-.0286-.43.25c-.2221.7447-.2578.9525-.5085,1.1387a1.1432,1.1432,0,0,1-.6373.2076.3423.3423,0,0,1-.3725-.3582,2.6882,2.6882,0,0,1,.4869-1.0311l-.0286-.0359-.5514.1935-.3938.5657a1.7,1.7,0,0,1-1.511.6659h-.5313a3.3987,3.3987,0,0,1-1.6327-.3938v-.0286l1.2459-1.153.2507-.7806a5.492,5.492,0,0,0-2.0767-.3579,9.0133,9.0133,0,0,0-1.9191.2362l-.2221.0286-.2794.8235.0216.0143h.2219a.9981.9981,0,0,1,.4942.3009,10.6067,10.6067,0,0,0,1.0025.9236v.0286a4.0352,4.0352,0,0,1-1.8761.3582h-.4013a1.4451,1.4451,0,0,1-.4583-.0788.7475.7475,0,0,1-.5371-.7663v-.4081c0-1.7617,0-3.6163-.1147-5.1847l-.05-.0286a6.4293,6.4293,0,0,0-.6732.6661c.1074,1.518.1862,2.9431.1862,4.3037,0,1.0526.007,1.5612.4437,2.0052a1.5787,1.5787,0,0,0,1.2246.4081h.3012a3.9927,3.9927,0,0,0,2.5064-.8378h.0289a4.0254,4.0254,0,0,0,2.3844.8378h.3381a1.9164,1.9164,0,0,0,1.5253-.6086h.0286a.615.615,0,0,0,.6875.6086,1.6744,1.6744,0,0,0,1.2532-.6159h.0575a1.2082,1.2082,0,0,0,.895.5943,1.3745,1.3745,0,0,0,1.06-.7876,2.4286,2.4286,0,0,0,.2578-.9811,8.2945,8.2945,0,0,0-.1147-1.2745Zm-8.2151,1.468a8.3712,8.3712,0,0,1-.888-.709c-.15-.1431-.2937-.2934-.4224-.4081v-.0286a7.1618,7.1618,0,0,1,1.3247-.129,5.6524,5.6524,0,0,1,1.332.1792v.0286a11.4909,11.4909,0,0,1-1.3177,1.067Z"/><path class="cls-2" d="M242.9314,392.1875a6.4328,6.4328,0,0,0-.5657.68c.2864.2362.5441.4653.8378.7447a3.8111,3.8111,0,0,0,.5441-.6588A6.7706,6.7706,0,0,0,242.9314,392.1875Z"/><path class="cls-2" d="M244.3133,392.0944a6.4943,6.4943,0,0,0-.5657.68c.2864.2362.5441.4653.8378.7447a3.8115,3.8115,0,0,0,.5444-.6588A6.7535,6.7535,0,0,0,244.3133,392.0944Z"/><path class="cls-2" d="M247.2288,386.81a5.6641,5.6641,0,0,0-.5371.8092,5.9548,5.9548,0,0,1,.7161,1.769c0,.1217-.1576.2219-.4081.315a4.6365,4.6365,0,0,1-1.4108.136h-.2515a1.3351,1.3351,0,0,1-.888-.2864.7112.7112,0,0,1-.2362-.5943,3.8444,3.8444,0,0,1,.1574-.8308l-.0429-.05-.4942.3582-.2076.7733c-.1074.4084-.68.63-1.2316.63h-.2585a1.4451,1.4451,0,0,1-.4583-.0788.7475.7475,0,0,1-.5371-.7663v-.4081c0-1.7617,0-3.6163-.1147-5.1847l-.05-.0286a6.4293,6.4293,0,0,0-.6732.6661c.1074,1.518.1862,2.9431.1862,4.3037,0,1.0526.007,1.5612.444,2.0052a1.5778,1.5778,0,0,0,1.2243.4081h.2156a1.541,1.541,0,0,0,1.4251-.73h.0286a1.4406,1.4406,0,0,0,1.4751.73h.2515c1.0958,0,1.6041-.1074,1.9263-.43a2.1448,2.1448,0,0,0,.5012-1.332,5.0511,5.0511,0,0,0-.7161-2.1841Z"/><path class="cls-2" d="M247.4437,385.2772a6.4739,6.4739,0,0,0-.8594-.7663c-.1933.2219-.3868.4726-.58.73.2864.2435.5657.4726.8451.7377A2.9007,2.9007,0,0,0,247.4437,385.2772Z"/><path class="cls-2" d="M255.8028,383.4224l-.05-.0359a3.3772,3.3772,0,0,0-.3938.3941.7234.7234,0,0,0-.2148.48c0,.265.0429.5657.0715.8953.1145,1.3174.1933,2.5706.2076,3.7164a.8157.8157,0,0,1-.3795.7735,1.6113,1.6113,0,0,1-.8019.1933h-.2809a1.17,1.17,0,0,1-1.1315-1.0813c-.1933-1.0526-.4154-2.1555-.68-3.1868l-.0432-.0286c-.186.2292-.3436.4869-.5083.7377a14.1205,14.1205,0,0,1,.5943,2.664c0,.1717-.2005.3865-.4656.5369a2.5511,2.5511,0,0,1-1.1671.3582.8963.8963,0,0,1-1.01-.96l-.2794.0213c-.0143.1792-.0216.3509-.0216.53a1.1687,1.1687,0,0,0,1.2462,1.3247,2.8453,2.8453,0,0,0,1.4394-.48,1.018,1.018,0,0,0,.5155-.6875h.0359a1.4191,1.4191,0,0,0,1.4608,1.1674h.245a2.05,2.05,0,0,0,.895-.2148,1.4511,1.4511,0,0,0,.6518-.8308,4.2436,4.2436,0,0,0,.2864-1.7973c0-.7949-.0645-1.6613-.0931-2.4848a4.1582,4.1582,0,0,0,.4513-.3652A3.2216,3.2216,0,0,1,255.8028,383.4224Z"/><path class="cls-2" d="M258.1448,383.53a6.5414,6.5414,0,0,0-.7018.759c.1147,1.2389.2578,3.1439.2578,4.4543v.7018a9.4247,9.4247,0,0,1-.0788,1.4321l.0931.05a1.8548,1.8548,0,0,0,.63-1.153,11.3023,11.3023,0,0,0,.05-1.1814c0-1.6686-.0359-3.48-.1862-5.0414Z"/><path class="cls-2" d="M212.4354,384.632a6.7333,6.7333,0,0,0-.8162-.7663,6.4943,6.4943,0,0,0-.5657.68c.2864.2362.5441.4653.8378.7447A3.8111,3.8111,0,0,0,212.4354,384.632Z"/><path class="cls-2" d="M213.8176,384.5388a6.7535,6.7535,0,0,0-.8165-.7663,6.4943,6.4943,0,0,0-.5657.68c.2866.2362.5444.4653.8381.7447A3.8226,3.8226,0,0,0,213.8176,384.5388Z"/><path class="cls-2" d="M214.4692,389.0218a2.3911,2.3911,0,0,0-.1145-.8022c-.1935-.7733-1.5827-1.6327-2.0267-2.0481l-.1.0359a4.8555,4.8555,0,0,0-.0788.7161,4.9539,4.9539,0,0,0-.7088.9093,2.9814,2.9814,0,0,0-.437,1.3749,1.7845,1.7845,0,0,0,.7377,1.59,1.5264,1.5264,0,0,0,.8594.2148,1.9726,1.9726,0,0,0,1.4823-.6586A2.4554,2.4554,0,0,0,214.4692,389.0218Zm-.7088.6516a1.8689,1.8689,0,0,1-1.1172.3868,1.1325,1.1325,0,0,1-1.196-.9668,2.31,2.31,0,0,1,1.0885-1.6041,4.2032,4.2032,0,0,1,1.1528.9309,1.3577,1.3577,0,0,1,.3868.7806A.6051.6051,0,0,1,213.76,389.6733Z"/><path class="cls-2" d="M221.79,385.5988a6.4739,6.4739,0,0,0-.8594-.7663c-.1935.2219-.3868.4726-.58.73.2864.2435.5657.4726.8448.7377A2.8963,2.8963,0,0,0,221.79,385.5988Z"/><path class="cls-2" d="M224.1388,388.1624a3.5537,3.5537,0,0,1-1.2246-.2292,6.9043,6.9043,0,0,0-2.3488-.623,1.4184,1.4184,0,0,0-1.5541,1.2888l.3509.9452h.0718l.2148-.6443-.0861-.3582a1.1483,1.1483,0,0,1,.91-.3579,6.7329,6.7329,0,0,1,2.2486.5012l-.0073.0286A7.4006,7.4006,0,0,1,218.89,390.01h-.5667c-.8308,0-1.203-.5657-1.6114-1.5468l-.05.0073c-.1217.2362-.2507.5012-.3941.8305a6.9126,6.9126,0,0,0,.6232,1.0672,1.52,1.52,0,0,1,.1933.322,2.8316,2.8316,0,0,1-2.3774,2.1485,1.8825,1.8825,0,0,1-.8235-.1576l-.1074.2435a4.1691,4.1691,0,0,0,1.79.5587c.53,0,1.1458-.43,1.7115-1.4251a2.3923,2.3923,0,0,0,.2866-1.11c0-.0788-.0073-.1649-.0143-.2507h.0286a1,1,0,0,0,.7231.2292h.5241a5.5937,5.5937,0,0,0,3.1007-.96l1.1957-.7806a2.22,2.22,0,0,1,1.2389-.265l.3795-.752-.0213-.0143Z"/><path class="cls-2" d="M229.2173,383.744a1.0506,1.0506,0,0,1,.0143-.15l-.05-.0359a3.145,3.145,0,0,0-.4224.4583.7822.7822,0,0,0-.15.5085c0,.3223.0715.7949.0858,1.1172.1217,1.2532.1862,2.1625.1862,2.8932a1.4979,1.4979,0,0,1-.573,1.3031l-.0429-.007a2.6013,2.6013,0,0,0-.308-1.2462c-.4224-.7447-1.0526-1.6756-1.7042-2.7069l.2292-.4081a12.4626,12.4626,0,0,1-1.1674-1.2532l-.0356.0073a2.0931,2.0931,0,0,0-.33.6875,3.4525,3.4525,0,0,0,.709,1.332c.5871.8591,1.1028,1.59,1.5612,2.2915a5.3931,5.3931,0,0,1,.8092,1.4608,8.66,8.66,0,0,1-3.2081.9309v.0788a5.8029,5.8029,0,0,0,1.7687.3293,3.283,3.283,0,0,0,1.7973-.6086,2.31,2.31,0,0,0,.7949-1.21,4.7446,4.7446,0,0,0,.2364-1.3963c0-.8737-.0216-1.6972-.0575-2.5709a3.0813,3.0813,0,0,0,.437-.3509A3.1115,3.1115,0,0,1,229.2173,383.744Z"/><path class="cls-2" d="M225.15,383.4v.0213a.8838.8838,0,0,0-.3293.2364l-.1719.3007.0143.0216a7.3363,7.3363,0,0,1,1.8618-.5371,3.4867,3.4867,0,0,0,.2794-.4869v-.0216c-.2435.0143-.4869.0286-.73.0286-.4227,0-1.024-.1145-1.024-.4583,0-.1074.25-.25.5012-.25a.9278.9278,0,0,1,.2219.0213c.0788.0216.1506.1217.2292.2794h.0143a.741.741,0,0,0,.2292-.4656c0-.186-.1646-.3509-.451-.3509a1.35,1.35,0,0,0-.8664.4084.9842.9842,0,0,0-.3366.63A.6709.6709,0,0,0,225.15,383.4Z"/><path class="cls-2" d="M231.5676,383.701a6.5414,6.5414,0,0,0-.7018.759c.1147,1.2389.2578,3.1439.2578,4.4543v.7018a9.4247,9.4247,0,0,1-.0788,1.4321l.0931.05a1.8536,1.8536,0,0,0,.63-1.153,11.3022,11.3022,0,0,0,.05-1.1814c0-1.6686-.0359-3.48-.1862-5.0414Z"/><path class="cls-2" d="M234.8124,387.0023a1.5331,1.5331,0,0,0-1.024.5943,1.9643,1.9643,0,0,0-.4583,1.2316c0,.9525.7231,1.3463,1.5612,1.3463a3.5549,3.5549,0,0,0,.9523-.1288,2.3518,2.3518,0,0,1-.6732,1.1957,2.8773,2.8773,0,0,1-2.1053,1.0958,2.2343,2.2343,0,0,1-1.0454-.2435l-.1074.2292a3.6189,3.6189,0,0,0,2.0551.7018c.5943,0,1.203-.3941,1.8405-1.3606a3.3877,3.3877,0,0,0,.5441-1.8834,4.1236,4.1236,0,0,0-.4583-1.9693A1.31,1.31,0,0,0,234.8124,387.0023Zm.179,2.2986c-.5873,0-1.2173-.315-1.2173-.759,0-.265.4653-.6373.8019-.6373.6159,0,1.0313.58,1.2246,1.3031A3.3774,3.3774,0,0,1,234.9913,389.3009Z"/></svg>